<svg xmlns="http://www.w3.org/2000/svg" viewBox="0 -0.5 42 80" shape-rendering="crispEdges">
<metadata>Made with Pixels to Svg https://codepen.io/shshaw/pen/XbxvNj</metadata>
<path stroke="rgba(0,255,0,0.00392156862745098)" d="M19 0h1M28 1h1M8 10h1M17 10h1M6 11h1M10 13h1M4 16h1M15 17h1M36 19h1M34 20h1M41 20h1M40 23h1M28 25h1M34 26h1M31 30h1M40 30h1M36 34h1M37 55h1M33 62h1M33 63h1M28 74h1M32 77h1" />
<path stroke="rgba(57,198,57,0.03529411764705882)" d="M20 0h1M34 29h1M34 39h1M13 44h1M33 61h1" />
<path stroke="rgba(50,205,50,0.2)" d="M21 0h4M21 4h4M39 21h1M0 22h1M30 24h2M37 36h1M22 59h1M22 63h3M24 75h2" />
<path stroke="rgba(47,208,47,0.10588235294117647)" d="M25 0h1" />
<path stroke="rgba(0,255,0,0.00784313725490196)" d="M26 0h1M32 5h1M11 9h1M5 12h1M4 13h1M7 14h1M34 14h1M5 16h1M3 17h1M34 18h1M33 25h1M1 27h1M2 28h1M14 30h1M22 79h1" />
<path stroke="rgba(42,213,42,0.023529411764705882)" d="M17 1h1M0 21h1M23 31h1M37 44h1M25 63h1" />
<path stroke="rgba(51,204,51,0.43529411764705883)" d="M18 1h1M17 40h1M17 69h1" />
<path stroke="rgba(51,204,51,0.8313725490196079)" d="M19 1h1M12 30h1" />
<path stroke="rgba(50,205,50,0.984313725490196)" d="M20 1h1M15 8h1M8 19h3M1 21h1M17 26h1M11 27h1M23 29h1M30 31h1M23 60h1M23 78h3" />
<path stroke="#32cd32" d="M21 1h4M18 2h1M20 2h7M17 3h10M28 3h1M15 4h4M27 4h3M15 5h3M29 5h2M14 6h3M30 6h2M14 7h2M30 7h2M13 8h2M30 8h2M13 9h2M30 9h3M12 10h3M31 10h2M10 11h7M30 11h3M8 12h1M12 12h3M16 12h2M30 12h3M6 13h1M12 13h2M30 13h3M13 14h1M30 14h3M11 15h2M30 15h3M11 16h2M30 16h4M35 16h1M7 17h6M30 17h2M36 17h1M5 18h9M29 18h3M3 19h5M11 19h5M30 19h2M2 20h4M13 20h4M29 20h3M2 21h3M14 21h3M28 21h5M1 22h4M15 22h3M26 22h10M1 23h2M15 23h3M24 23h7M33 23h4M2 24h3M15 24h3M24 24h3M34 24h4M2 25h3M15 25h3M23 25h4M35 25h4M2 26h4M14 26h3M23 26h3M36 26h3M3 27h5M12 27h5M23 27h1M25 27h1M37 27h3M5 28h7M13 28h3M23 28h1M25 28h2M36 28h3M7 29h5M24 29h3M36 29h2M10 30h2M24 30h4M35 30h4M10 31h2M25 31h1M27 31h3M34 31h4M10 32h2M26 32h3M30 32h7M10 33h2M28 33h7M10 34h2M28 34h2M10 35h2M28 35h2M10 36h2M28 36h2M10 37h2M15 37h2M28 37h2M37 37h1M10 38h2M15 38h2M28 38h2M36 38h2M10 39h2M15 39h2M28 39h2M36 39h2M10 40h2M15 40h2M28 40h2M35 40h2M10 41h2M15 41h2M28 41h2M35 41h2M10 42h2M15 42h2M29 42h1M36 42h1M10 43h2M15 43h2M28 43h2M34 43h2M10 44h2M15 44h2M28 44h2M34 44h2M10 45h3M15 45h2M28 45h2M34 45h2M10 46h3M15 46h2M28 46h2M34 46h2M10 47h3M15 47h2M29 47h1M34 47h2M10 48h3M15 48h2M28 48h2M34 48h2M10 49h3M15 49h2M28 49h2M34 49h2M10 50h3M15 50h2M28 50h2M34 50h2M11 51h2M15 51h2M28 51h2M34 51h2M12 52h1M16 52h2M28 52h1M34 52h2M11 53h2M16 53h2M28 53h2M34 53h2M11 54h1M16 54h1M28 54h2M34 54h2M11 55h2M16 55h2M28 55h1M34 55h1M11 56h3M17 56h2M28 56h2M34 56h2M11 57h3M17 57h2M28 57h2M34 57h2M12 58h2M17 58h3M27 58h2M34 58h3M12 59h2M18 59h3M26 59h1M28 59h1M34 59h1M36 59h1M12 60h2M19 60h4M25 60h3M34 60h3M12 61h2M20 61h7M35 61h2M12 62h3M22 62h3M35 62h2M12 63h3M36 63h1M13 64h2M35 64h2M13 65h2M34 65h3M13 66h3M34 66h3M14 67h1M34 67h3M14 68h2M34 68h2M15 69h1M34 69h2M16 70h1M34 70h2M15 71h3M33 71h2M16 72h2M33 72h2M16 73h3M32 73h2M17 74h3M31 74h3M18 75h4M29 75h4M19 76h8M28 76h3M20 77h10" />
<path stroke="rgba(50,205,50,0.9921568627450981)" d="M25 1h1M9 12h1M33 15h1M27 21h1M33 21h1M6 29h1M37 32h1M37 40h1M36 56h1M24 60h1M36 68h1M14 69h1" />
<path stroke="rgba(50,205,50,0.8470588235294118)" d="M26 1h1M12 9h1M36 16h1M36 22h1M31 31h1M9 35h1M9 36h1M28 75h1" />
<path stroke="rgba(52,203,52,0.2901960784313726)" d="M27 1h1M32 6h1" />
<path stroke="rgba(49,206,49,0.2235294117647059)" d="M16 2h1M12 66h1M37 67h1M26 75h1" />
<path stroke="rgba(50,205,51,0.8666666666666667)" d="M17 2h1" />
<path stroke="#32cc32" d="M19 2h1M13 7h1M34 16h1M4 18h1M31 23h1M28 42h1M28 47h1M16 69h1" />
<path stroke="rgba(50,205,50,0.996078431372549)" d="M27 2h1M29 6h1M32 8h1M9 11h1M7 12h1M6 17h1M35 17h1M14 18h1M37 18h1M1 24h1M27 24h1M4 28h1M13 29h1M39 29h1M33 31h1M38 31h1M35 33h1M36 43h1M10 51h1M36 57h1M35 71h1M34 73h1M31 76h1" />
<path stroke="rgba(50,205,50,0.7137254901960784)" d="M28 2h1M26 4h1M17 49h1" />
<path stroke="rgba(57,198,57,0.07058823529411765)" d="M29 2h1M35 37h1M30 58h1M17 68h1" />
<path stroke="rgba(49,206,49,0.3686274509803922)" d="M15 3h1M4 17h1M7 30h1M16 36h1" />
<path stroke="rgba(50,205,50,0.9529411764705882)" d="M16 3h1M26 26h1M33 47h1M16 56h1M15 65h1" />
<path stroke="#33cd32" d="M27 3h1M15 12h1M12 14h1M3 23h1M24 27h1M36 27h1M12 28h1M24 28h1M39 28h1M12 29h1M12 54h1M27 59h1M15 67h1M15 70h1M27 76h1" />
<path stroke="rgba(50,205,50,0.8980392156862745)" d="M29 3h1M30 4h1" />
<path stroke="rgba(51,204,51,0.1568627450980392)" d="M30 3h1" />
<path stroke="rgba(51,204,51,0.43137254901960786)" d="M14 4h1M23 23h1M36 49h1M18 53h1M32 71h1" />
<path stroke="rgba(50,205,50,0.8)" d="M19 4h1M9 27h1M27 29h1M31 34h3" />
<path stroke="rgba(50,205,50,0.44313725490196076)" d="M20 4h1" />
<path stroke="rgba(50,205,50,0.30196078431372547)" d="M25 4h1M11 20h1" />
<path stroke="rgba(53,202,53,0.11372549019607843)" d="M31 4h1M27 20h1M6 25h1" />
<path stroke="rgba(53,203,53,0.13333333333333333)" d="M13 5h1M41 21h1M13 45h1M13 46h1M17 60h1" />
<path stroke="rgba(50,205,51,0.9725490196078431)" d="M14 5h1" />
<path stroke="rgba(49,206,49,0.5294117647058824)" d="M18 5h1M27 52h1M27 53h1M14 58h1" />
<path stroke="rgba(42,212,42,0.023529411764705882)" d="M19 5h1" />
<path stroke="rgba(49,206,49,0.3843137254901961)" d="M27 5h1M12 26h1M29 30h1" />
<path stroke="rgba(50,204,50,0.984313725490196)" d="M28 5h1M34 42h1" />
<path stroke="rgba(50,205,50,0.7176470588235294)" d="M31 5h1M33 45h1M33 52h1" />
<path stroke="rgba(50,205,50,0.7019607843137254)" d="M13 6h1M26 21h1" />
<path stroke="rgba(50,205,50,0.5176470588235295)" d="M17 6h1M17 38h1M17 39h1M17 46h1M17 47h1" />
<path stroke="rgba(49,206,49,0.36470588235294116)" d="M28 6h1M34 40h1" />
<path stroke="rgba(50,205,50,0.1803921568627451)" d="M12 7h1M9 10h1" />
<path stroke="rgba(50,204,50,0.8196078431372549)" d="M16 7h1" />
<path stroke="rgba(51,204,51,0.0196078431372549)" d="M17 7h1M14 36h1M18 51h1M18 77h1" />
<path stroke="rgba(50,205,50,0.6196078431372549)" d="M29 7h1M6 12h1M15 18h1M37 62h1M37 63h1" />
<path stroke="rgba(50,205,50,0.7647058823529411)" d="M32 7h1M9 37h1" />
<path stroke="rgba(50,205,50,0.4588235294117647)" d="M12 8h1M30 38h1M30 51h1M11 61h1" />
<path stroke="rgba(51,204,51,0.2549019607843137)" d="M16 8h1M37 16h1M5 22h1" />
<path stroke="rgba(50,205,50,0.25882352941176473)" d="M29 8h1M39 18h1M38 23h1M4 29h1" />
<path stroke="rgba(51,204,51,0.0784313725490196)" d="M33 8h1M14 15h1M28 17h1M27 26h1" />
<path stroke="rgba(50,205,50,0.7215686274509804)" d="M15 9h1M40 20h1M34 41h1M33 69h1" />
<path stroke="rgba(50,205,50,0.1411764705882353)" d="M29 9h1M33 20h1" />
<path stroke="rgba(52,203,52,0.15294117647058825)" d="M33 9h1M36 71h1" />
<path stroke="rgba(51,204,51,0.45098039215686275)" d="M10 10h1M3 15h1M35 28h1" />
<path stroke="rgba(50,205,50,0.7411764705882353)" d="M11 10h1M29 15h1M10 16h1M28 24h1M12 31h1M12 32h1M12 33h1M12 35h1M12 36h1M12 38h1" />
<path stroke="rgba(50,205,50,0.6784313725490196)" d="M15 10h1M16 57h1" />
<path stroke="rgba(52,203,52,0.25098039215686274)" d="M16 10h1" />
<path stroke="rgba(51,204,51,0.058823529411764705)" d="M29 10h1M2 18h1M27 62h1" />
<path stroke="rgba(50,205,50,0.9686274509803922)" d="M30 10h1M34 61h1M16 68h1" />
<path stroke="rgba(50,205,50,0.23921568627450981)" d="M33 10h1" />
<path stroke="rgba(49,206,49,0.34509803921568627)" d="M7 11h1M8 13h1M29 24h1M7 26h1" />
<path stroke="rgba(50,205,50,0.7764705882352941)" d="M8 11h1M11 13h1M16 13h1M13 53h1" />
<path stroke="rgba(49,206,49,0.788235294117647)" d="M17 11h1M36 69h1M14 70h1" />
<path stroke="rgba(46,209,46,0.043137254901960784)" d="M18 11h1M18 13h1M5 23h1M20 57h1" />
<path stroke="rgba(51,204,51,0.13725490196078433)" d="M29 11h1M33 13h1" />
<path stroke="rgba(49,206,49,0.24313725490196078)" d="M33 11h1M32 18h1" />
<path stroke="rgba(50,205,50,0.8627450980392157)" d="M10 12h1M5 25h1M6 26h1M28 30h1" />
<path stroke="rgba(49,206,49,0.9294117647058824)" d="M11 12h1M30 34h1M21 62h1" />
<path stroke="rgba(52,203,52,0.23137254901960785)" d="M18 12h1" />
<path stroke="rgba(50,205,51,0.1411764705882353)" d="M29 12h1" />
<path stroke="rgba(49,206,49,0.20392156862745098)" d="M33 12h1M0 23h1" />
<path stroke="rgba(50,205,50,0.615686274509804)" d="M5 13h1M25 32h1" />
<path stroke="rgba(50,205,50,0.8196078431372549)" d="M7 13h1M33 24h1M30 77h1" />
<path stroke="rgba(48,206,49,0.10196078431372549)" d="M9 13h1" />
<path stroke="rgba(50,205,50,0.5803921568627451)" d="M14 13h1M8 16h1M20 58h1M37 61h1M37 64h1" />
<path stroke="rgba(51,204,51,0.5333333333333333)" d="M15 13h1M13 50h1" />
<path stroke="rgba(51,204,51,0.6901960784313725)" d="M17 13h1M15 64h1" />
<path stroke="rgba(50,205,50,0.33725490196078434)" d="M29 13h1M13 48h1M11 62h1" />
<path stroke="rgba(85,170,85,0.011764705882352941)" d="M3 14h1M0 25h1M14 52h1M14 72h1" />
<path stroke="rgba(50,205,50,0.6588235294117647)" d="M4 14h1M21 59h1" />
<path stroke="rgba(50,205,50,0.8274509803921568)" d="M5 14h1M16 19h1M22 26h1M22 27h1" />
<path stroke="rgba(50,205,50,0.3411764705882353)" d="M6 14h1M13 49h1" />
<path stroke="rgba(64,191,64,0.03137254901960784)" d="M10 14h1M16 18h1M37 56h1M21 63h1M37 68h1" />
<path stroke="rgba(50,205,50,0.9411764705882353)" d="M11 14h1M35 39h1M12 40h1M12 41h1M12 42h1M12 43h1M29 58h1" />
<path stroke="rgba(52,203,53,0.21176470588235294)" d="M14 14h1" />
<path stroke="rgba(50,205,50,0.5019607843137255)" d="M29 14h1M36 70h1" />
<path stroke="rgba(47,208,47,0.16862745098039217)" d="M33 14h1" />
<path stroke="rgba(51,204,51,0.5529411764705883)" d="M4 15h1M27 25h1M15 54h1" />
<path stroke="rgba(51,204,51,0.0392156862745098)" d="M5 15h1M6 21h1M10 58h1" />
<path stroke="rgba(52,203,52,0.21176470588235294)" d="M10 15h1M25 21h1M14 56h1M10 57h1" />
<path stroke="rgba(50,205,50,0.9764705882352941)" d="M13 15h1M29 17h1M4 23h1M14 25h1M8 27h1" />
<path stroke="rgba(50,205,50,0.8784313725490196)" d="M34 15h1M26 27h1M17 50h1" />
<path stroke="rgba(51,204,51,0.49411764705882355)" d="M35 15h1M24 22h1M30 56h1" />
<path stroke="rgba(54,200,55,0.054901960784313725)" d="M36 15h1" />
<path stroke="rgba(64,191,64,0.01568627450980392)" d="M2 16h1M9 20h1M12 21h1M32 30h1M16 59h1M23 59h1M30 78h1M23 79h4" />
<path stroke="rgba(50,205,50,0.4196078431372549)" d="M3 16h1M37 59h1M37 66h1" />
<path stroke="rgba(51,204,51,0.21568627450980393)" d="M6 16h1M13 25h1" />
<path stroke="rgba(50,205,50,0.403921568627451)" d="M7 16h1M40 28h1M9 47h1M29 74h1" />
<path stroke="rgba(50,205,50,0.6)" d="M9 16h1M20 62h1" />
<path stroke="rgba(50,205,50,0.8156862745098039)" d="M13 16h1M11 59h1" />
<path stroke="rgba(59,196,59,0.050980392156862744)" d="M28 16h1M32 19h1M26 57h1M33 76h1" />
<path stroke="rgba(50,205,50,0.9647058823529412)" d="M29 16h1M23 24h1M18 55h1" />
<path stroke="rgba(50,205,50,0.8431372549019608)" d="M5 17h1" />
<path stroke="rgba(50,205,50,0.8941176470588236)" d="M13 17h1M22 78h1" />
<path stroke="rgba(50,205,50,0.2823529411764706)" d="M14 17h1" />
<path stroke="rgba(50,205,50,0.7372549019607844)" d="M32 17h1" />
<path stroke="rgba(51,204,51,0.6705882352941176)" d="M33 17h1M14 23h1" />
<path stroke="rgba(50,205,50,0.8666666666666667)" d="M34 17h1M39 20h1" />
<path stroke="rgba(50,205,50,0.9607843137254902)" d="M37 17h1M37 23h1M36 44h1M34 62h1M34 63h1" />
<path stroke="rgba(51,204,51,0.41568627450980394)" d="M38 17h1M28 19h1" />
<path stroke="rgba(50,205,50,0.7254901960784313)" d="M3 18h1M9 34h1M27 50h1M14 59h1" />
<path stroke="rgba(51,204,51,0.17647058823529413)" d="M28 18h1M18 61h1" />
<path stroke="rgba(52,203,52,0.19215686274509805)" d="M35 18h1M18 52h1M30 73h1" />
<path stroke="rgba(50,205,50,0.6627450980392157)" d="M36 18h1" />
<path stroke="rgba(50,205,51,0.9921568627450981)" d="M38 18h1" />
<path stroke="rgba(55,200,55,0.054901960784313725)" d="M1 19h1" />
<path stroke="rgba(50,205,50,0.8745098039215686)" d="M2 19h1" />
<path stroke="rgba(42,213,42,0.047058823529411764)" d="M17 19h1M36 21h1M8 26h1M9 50h1M9 51h1M15 56h1M15 61h1M16 65h1M18 70h1M16 75h1" />
<path stroke="#32cd33" d="M29 19h1M32 23h1M38 29h1M26 31h1M29 32h1M35 42h1M11 52h1M29 52h1M17 54h1M29 55h1M35 55h1M35 59h1M35 63h1" />
<path stroke="rgba(48,206,48,0.30980392156862746)" d="M37 19h1" />
<path stroke="rgba(51,204,51,0.8705882352941177)" d="M38 19h1" />
<path stroke="rgba(50,205,50,0.9333333333333333)" d="M39 19h1M27 33h1M27 37h1M27 38h1M27 39h1M27 40h1M27 41h1M27 42h1M30 74h1" />
<path stroke="rgba(49,206,49,0.16470588235294117)" d="M40 19h1M33 57h1" />
<path stroke="rgba(49,206,49,0.6078431372549019)" d="M1 20h1" />
<path stroke="rgba(51,205,50,0.8235294117647058)" d="M6 20h1" />
<path stroke="rgba(50,204,50,0.33725490196078434)" d="M7 20h1" />
<path stroke="rgba(64,191,65,0.01568627450980392)" d="M8 20h1" />
<path stroke="rgba(36,219,36,0.027450980392156862)" d="M10 20h1M13 22h1M11 26h1M30 30h1M17 36h1" />
<path stroke="rgba(50,205,50,0.7803921568627451)" d="M12 20h1M12 39h1M33 75h1" />
<path stroke="rgba(51,204,51,0.592156862745098)" d="M17 20h1M17 27h1" />
<path stroke="rgba(0,255,1,0.00392156862745098)" d="M26 20h1M5 30h1" />
<path stroke="rgba(49,206,49,0.7098039215686275)" d="M28 20h1M18 23h1M18 24h1" />
<path stroke="rgba(49,206,49,0.42745098039215684)" d="M32 20h1" />
<path stroke="rgba(51,204,51,0.11764705882352941)" d="M38 20h1" />
<path stroke="rgba(50,205,50,0.7725490196078432)" d="M5 21h1M34 30h1M24 31h1M38 38h1" />
<path stroke="rgba(49,206,49,0.6470588235294118)" d="M13 21h1M39 25h1M10 54h1" />
<path stroke="rgba(50,205,51,0.984313725490196)" d="M17 21h1M26 78h1" />
<path stroke="rgba(49,206,49,0.24705882352941178)" d="M18 21h1M9 48h1M15 62h1" />
<path stroke="rgba(51,204,51,0.8117647058823529)" d="M34 21h1M35 29h1M10 53h1M27 78h1" />
<path stroke="rgba(51,204,51,0.4117647058823529)" d="M35 21h1" />
<path stroke="rgba(50,205,50,0.9450980392156862)" d="M40 21h1" />
<path stroke="rgba(50,205,50,0.9215686274509803)" d="M14 22h1M38 24h1M27 57h1M19 73h1" />
<path stroke="rgba(51,204,51,0.6313725490196078)" d="M18 22h1M19 77h1" />
<path stroke="rgba(50,205,50,0.9803921568627451)" d="M25 22h1M33 70h1M18 72h1" />
<path stroke="rgba(50,205,50,0.2196078431372549)" d="M37 22h1M37 33h1" />
<path stroke="rgba(50,205,50,0.3607843137254902)" d="M40 22h1" />
<path stroke="rgba(50,205,50,0.47843137254901963)" d="M41 22h1M33 68h1" />
<path stroke="rgba(49,206,49,0.4666666666666667)" d="M41 23h1" />
<path stroke="rgba(46,208,47,0.16862745098039217)" d="M0 24h1" />
<path stroke="rgba(51,204,51,0.3333333333333333)" d="M5 24h1M14 57h1M29 78h1" />
<path stroke="rgba(49,206,49,0.7490196078431373)" d="M14 24h1" />
<path stroke="rgba(48,207,48,0.1450980392156863)" d="M22 24h1M38 40h1M37 43h1" />
<path stroke="rgba(50,205,50,0.3803921568627451)" d="M32 24h1" />
<path stroke="rgba(53,202,53,0.09411764705882353)" d="M39 24h1M6 30h1" />
<path stroke="rgba(0,255,1,0.00784313725490196)" d="M41 24h1" />
<path stroke="rgba(49,206,49,0.9098039215686274)" d="M1 25h1M19 61h1M17 70h1" />
<path stroke="rgba(49,206,49,0.5882352941176471)" d="M18 25h1M23 30h1" />
<path stroke="rgba(50,205,50,0.5843137254901961)" d="M22 25h1M13 68h1" />
<path stroke="rgba(50,205,50,0.5607843137254902)" d="M34 25h1M33 54h1" />
<path stroke="rgba(49,207,49,0.4470588235294118)" d="M1 26h1" />
<path stroke="rgba(50,205,50,0.9019607843137255)" d="M13 26h1M27 61h1" />
<path stroke="rgba(53,203,52,0.17254901960784313)" d="M18 26h1" />
<path stroke="rgba(49,206,49,0.7294117647058823)" d="M35 26h1M27 34h1M27 35h1M27 45h1M27 46h1M27 47h1M27 48h1M27 49h1M13 52h1M27 56h1M18 76h1" />
<path stroke="rgba(50,205,50,0.9568627450980393)" d="M39 26h1M12 44h1M33 48h1M33 49h1M14 61h1" />
<path stroke="rgba(55,200,55,0.09019607843137255)" d="M40 26h1" />
<path stroke="rgba(50,205,50,0.6039215686274509)" d="M2 27h1" />
<path stroke="rgba(50,205,50,0.807843137254902)" d="M10 27h1M17 75h1" />
<path stroke="rgba(49,206,49,0.40784313725490196)" d="M35 27h1" />
<path stroke="rgba(49,206,49,0.32941176470588235)" d="M40 27h1M10 56h1" />
<path stroke="rgba(50,204,51,0.4549019607843137)" d="M3 28h1" />
<path stroke="rgba(50,205,50,0.6549019607843137)" d="M16 28h1M30 35h1M30 36h1M30 53h1M30 54h1M30 55h1" />
<path stroke="rgba(36,219,37,0.027450980392156862)" d="M17 28h1" />
<path stroke="rgba(49,206,49,0.6274509803921569)" d="M22 28h1M36 47h1M36 51h1M36 52h1M28 78h1" />
<path stroke="rgba(52,203,52,0.17254901960784313)" d="M27 28h1M40 29h1" />
<path stroke="rgba(50,205,50,0.803921568627451)" d="M5 29h1" />
<path stroke="rgba(50,205,50,0.8823529411764706)" d="M14 29h1" />
<path stroke="rgba(50,205,50,0.3568627450980392)" d="M15 29h1M17 45h1M33 56h1" />
<path stroke="rgba(51,204,51,0.23529411764705882)" d="M22 29h1M35 34h1M35 73h1" />
<path stroke="rgba(45,210,45,0.06666666666666667)" d="M28 29h1M24 32h1M14 51h1M33 64h1" />
<path stroke="rgba(49,206,49,0.5686274509803921)" d="M8 30h1" />
<path stroke="rgba(50,205,50,0.8588235294117647)" d="M9 30h1M36 37h1M36 55h1M15 72h1" />
<path stroke="rgba(47,208,47,0.14901960784313725)" d="M13 30h1" />
<path stroke="rgba(48,207,48,0.22745098039215686)" d="M33 30h1M37 58h1" />
<path stroke="rgba(51,205,50,0.807843137254902)" d="M39 30h1" />
<path stroke="rgba(50,205,50,0.6431372549019608)" d="M9 31h1M9 32h1M9 33h1M9 38h1M9 39h1M9 40h1M9 41h1M9 42h1M16 67h1" />
<path stroke="rgba(50,205,51,0.9764705882352941)" d="M32 31h1" />
<path stroke="rgba(51,204,51,0.29411764705882354)" d="M39 31h1" />
<path stroke="rgba(50,205,51,0.4196078431372549)" d="M38 32h1" />
<path stroke="rgba(50,205,50,0.3176470588235294)" d="M26 33h1M17 41h1M17 42h1M17 43h1M17 44h1M15 73h1" />
<path stroke="rgba(51,205,50,0.7647058823529411)" d="M36 33h1" />
<path stroke="rgba(51,205,50,0.7411764705882353)" d="M12 34h1M12 37h1" />
<path stroke="rgba(50,205,50,0.5764705882352941)" d="M34 34h1M25 59h1M12 65h1" />
<path stroke="rgba(49,206,49,0.34901960784313724)" d="M15 36h1" />
<path stroke="rgba(51,204,51,0.8901960784313725)" d="M27 36h1" />
<path stroke="rgba(50,204,51,0.0784313725490196)" d="M36 36h1" />
<path stroke="rgba(42,213,43,0.047058823529411764)" d="M38 36h1" />
<path stroke="rgba(50,205,50,0.6235294117647059)" d="M14 37h1M36 48h1M36 50h1" />
<path stroke="rgba(51,204,51,0.4745098039215686)" d="M17 37h1" />
<path stroke="rgba(51,204,51,0.6509803921568628)" d="M30 37h1M30 52h1M11 60h1" />
<path stroke="rgba(51,204,50,0.5333333333333333)" d="M38 37h1" />
<path stroke="rgba(50,206,50,0.6666666666666666)" d="M14 38h1M14 39h1M14 40h1M14 41h1M14 42h1M14 43h1M36 46h1" />
<path stroke="rgba(49,206,49,0.5254901960784314)" d="M35 38h1M9 44h1" />
<path stroke="rgba(51,204,51,0.4549019607843137)" d="M30 39h1M30 40h1M30 41h1M30 42h1M30 43h1M30 44h1M30 45h1M30 46h1M30 47h1M30 48h1M30 49h1M30 50h1M10 55h1" />
<path stroke="rgba(50,205,50,0.4980392156862745)" d="M38 39h1" />
<path stroke="rgba(50,204,50,0.7450980392156863)" d="M37 41h1" />
<path stroke="rgba(51,204,51,0.09803921568627451)" d="M33 42h1M32 70h1" />
<path stroke="rgba(50,205,50,0.4235294117647059)" d="M37 42h1M37 60h1M37 65h1" />
<path stroke="rgba(51,205,50,0.6431372549019608)" d="M9 43h1" />
<path stroke="rgba(51,205,50,0.9333333333333333)" d="M27 43h1" />
<path stroke="rgba(50,205,50,0.3215686274509804)" d="M33 43h1M16 66h1M33 67h1" />
<path stroke="rgba(51,204,51,0.47058823529411764)" d="M14 44h1M14 46h1M14 47h1" />
<path stroke="rgba(49,206,49,0.7686274509803922)" d="M27 44h1" />
<path stroke="rgba(51,205,50,0.5568627450980392)" d="M33 44h1" />
<path stroke="rgba(49,206,49,0.4470588235294118)" d="M9 45h1M9 46h1M15 63h1" />
<path stroke="rgba(51,204,50,0.47058823529411764)" d="M14 45h1" />
<path stroke="rgba(50,205,50,0.8235294117647058)" d="M36 45h1M36 54h1M12 64h1" />
<path stroke="rgba(50,205,50,0.7607843137254902)" d="M33 46h1" />
<path stroke="rgba(51,205,51,0.17647058823529413)" d="M13 47h1" />
<path stroke="rgba(48,207,48,0.30980392156862746)" d="M14 48h1" />
<path stroke="rgba(50,205,50,0.5215686274509804)" d="M17 48h1" />
<path stroke="rgba(49,207,48,0.20784313725490197)" d="M9 49h1" />
<path stroke="rgba(49,206,49,0.26666666666666666)" d="M14 49h1" />
<path stroke="rgba(46,209,46,0.08627450980392157)" d="M14 50h1" />
<path stroke="rgba(50,205,50,0.796078431372549)" d="M33 50h1" />
<path stroke="rgba(50,205,50,0.5372549019607843)" d="M13 51h1" />
<path stroke="rgba(50,205,50,0.9372549019607843)" d="M17 51h1M13 54h1" />
<path stroke="rgba(50,204,51,0.5333333333333333)" d="M27 51h1" />
<path stroke="rgba(51,205,50,0.7568627450980392)" d="M33 51h1" />
<path stroke="rgba(51,204,51,0.8509803921568627)" d="M10 52h1M32 72h1" />
<path stroke="rgba(51,205,50,0.9019607843137255)" d="M15 52h1" />
<path stroke="rgba(50,205,50,0.7529411764705882)" d="M15 53h1" />
<path stroke="rgba(51,205,50,0.5607843137254902)" d="M33 53h1" />
<path stroke="rgba(50,205,50,0.7450980392156863)" d="M36 53h1M17 59h1" />
<path stroke="rgba(50,205,50,0.6745098039215687)" d="M18 54h1" />
<path stroke="rgba(48,206,49,0.5294117647058824)" d="M27 54h1" />
<path stroke="rgba(50,205,50,0.9882352941176471)" d="M13 55h1" />
<path stroke="rgba(49,206,49,0.10196078431372549)" d="M14 55h1M19 55h1M31 72h1" />
<path stroke="rgba(51,204,51,0.35294117647058826)" d="M15 55h1M14 71h1M23 75h1" />
<path stroke="rgba(51,204,51,0.611764705882353)" d="M27 55h1M16 74h1" />
<path stroke="rgba(50,205,50,0.4)" d="M33 55h1" />
<path stroke="rgba(49,207,49,0.4666666666666667)" d="M19 56h1" />
<path stroke="rgba(50,204,50,0.9058823529411765)" d="M19 57h1" />
<path stroke="rgba(50,205,50,0.3764705882352941)" d="M30 57h1" />
<path stroke="rgba(57,199,57,0.07058823529411765)" d="M37 57h1" />
<path stroke="rgba(50,205,50,0.9725490196078431)" d="M11 58h1" />
<path stroke="rgba(50,205,50,0.2784313725490196)" d="M16 58h1" />
<path stroke="rgba(50,205,50,0.5647058823529412)" d="M26 58h1M26 62h1" />
<path stroke="rgba(50,205,50,0.1607843137254902)" d="M33 58h1M33 59h1M33 60h1M28 61h1M33 65h1M33 66h1" />
<path stroke="rgba(46,209,46,0.10980392156862745)" d="M24 59h1" />
<path stroke="rgba(50,205,50,0.5411764705882353)" d="M29 59h1" />
<path stroke="rgba(50,205,50,0.7333333333333333)" d="M14 60h1" />
<path stroke="rgba(50,205,50,0.9137254901960784)" d="M18 60h1" />
<path stroke="rgba(50,205,50,0.8352941176470589)" d="M28 60h1" />
<path stroke="rgba(48,207,48,0.06274509803921569)" d="M29 60h1" />
<path stroke="rgba(49,206,49,0.08235294117647059)" d="M19 62h1" />
<path stroke="rgba(50,205,50,0.9254901960784314)" d="M25 62h1" />
<path stroke="rgba(53,203,52,0.13333333333333333)" d="M11 63h1" />
<path stroke="rgba(50,204,50,0.9764705882352941)" d="M34 64h1" />
<path stroke="rgba(43,213,42,0.023529411764705882)" d="M12 67h1" />
<path stroke="rgba(50,204,50,0.8784313725490196)" d="M13 67h1" />
<path stroke="rgba(49,206,49,0.1843137254901961)" d="M13 69h1M20 73h1" />
<path stroke="rgba(51,204,51,0.5137254901960784)" d="M18 71h1" />
<path stroke="rgba(48,207,48,0.20784313725490197)" d="M19 72h1" />
<path stroke="rgba(49,206,48,0.7490196078431373)" d="M35 72h1" />
<path stroke="rgba(51,205,51,0.8509803921568627)" d="M31 73h1" />
<path stroke="rgba(50,205,50,0.9176470588235294)" d="M20 74h1" />
<path stroke="rgba(50,205,50,0.2980392156862745)" d="M21 74h1" />
<path stroke="rgba(50,205,50,0.5568627450980392)" d="M34 74h1" />
<path stroke="rgba(50,205,50,0.7568627450980392)" d="M22 75h1" />
<path stroke="rgba(49,206,49,0.5058823529411764)" d="M27 75h1" />
<path stroke="rgba(51,205,51,0.0196078431372549)" d="M34 75h1" />
<path stroke="rgba(54,201,55,0.07450980392156863)" d="M17 76h1" />
<path stroke="rgba(51,204,50,0.6313725490196078)" d="M32 76h1" />
<path stroke="rgba(51,204,51,0.3137254901960784)" d="M31 77h1" />
<path stroke="rgba(50,205,51,0.2823529411764706)" d="M20 78h1" />
<path stroke="rgba(50,205,50,0.6823529411764706)" d="M21 78h1" />
</svg>
