<svg xmlns="http://www.w3.org/2000/svg" viewBox="0 -0.5 400 400" shape-rendering="crispEdges">
<metadata>Made with Pixels to Svg https://codepen.io/shshaw/pen/XbxvNj</metadata>
<path stroke="#32CD32" d="M312 32h32M312 33h32M312 34h32M312 35h32M312 36h32M312 37h32M312 38h32M312 39h32M312 40h32M312 41h32M312 42h32M312 43h32M312 44h32M312 45h32M312 46h32M312 47h32M312 48h32M312 49h32M312 50h32M312 51h32M312 52h32M312 53h32M312 54h32M312 55h32M312 56h32M312 57h32M312 58h32M312 59h32M312 60h32M312 61h32M312 62h32M312 63h32M312 64h32M312 65h32M312 66h32M312 67h32M312 68h32M312 69h32M312 70h32M312 71h32M312 72h32M312 73h32M312 74h32M312 75h32M312 76h32M312 77h30M343 77h1M312 78h32M312 79h32M312 80h32M312 81h32M312 82h32M312 83h32M312 84h32M312 85h32M312 86h32M312 87h32M312 88h32M312 89h32M312 90h32M312 91h32M312 92h32M312 93h32M312 94h32M312 95h32M312 96h32M312 97h32M312 98h24M337 98h7M312 99h32M312 100h32M312 101h32M312 102h32M312 103h32M312 104h32M312 105h32M312 106h32M312 107h32M312 108h32M312 109h32M312 110h32M312 111h32M64 112h56M312 112h32M64 113h56M312 113h32M64 114h56M312 114h32M64 115h56M312 115h32M64 116h56M312 116h32M64 117h56M312 117h32M64 118h56M312 118h25M338 118h6M64 119h56M312 119h32M48 120h65M114 120h22M312 120h32M48 121h88M312 121h32M48 122h88M312 122h32M48 123h88M312 123h11M324 123h20M48 124h88M312 124h32M48 125h81M130 125h6M312 125h32M48 126h88M312 126h32M48 127h63M112 127h24M312 127h23M336 127h8M40 128h40M104 128h7M112 128h40M312 128h32M40 129h40M104 129h48M312 129h32M40 130h40M104 130h48M312 130h9M322 130h22M40 131h40M104 131h28M133 131h19M312 131h15M328 131h16M40 132h40M104 132h48M312 132h32M40 133h40M104 133h48M312 133h32M40 134h40M104 134h48M312 134h32M40 135h40M104 135h48M312 135h32M32 136h32M128 136h32M312 136h32M32 137h32M128 137h32M312 137h32M32 138h3M36 138h28M128 138h26M155 138h5M312 138h32M32 139h32M128 139h32M312 139h32M32 140h32M128 140h32M312 140h32M32 141h32M128 141h32M312 141h32M32 142h32M128 142h32M312 142h32M32 143h32M128 143h32M312 143h32M24 144h24M136 144h24M312 144h32M24 145h24M136 145h24M312 145h32M24 146h24M136 146h24M312 146h32M24 147h24M136 147h24M312 147h32M24 148h24M136 148h24M312 148h32M24 149h24M136 149h24M312 149h32M24 150h24M136 150h24M312 150h32M24 151h24M136 151h24M312 151h32M16 152h24M144 152h24M312 152h32M16 153h1M18 153h22M144 153h24M312 153h32M16 154h24M144 154h24M312 154h32M16 155h24M144 155h24M312 155h32M16 156h1M18 156h22M144 156h24M312 156h32M16 157h24M144 157h24M312 157h26M339 157h5M16 158h24M144 158h24M312 158h32M16 159h24M144 159h24M312 159h32M16 160h24M152 160h24M312 160h32M16 161h24M152 161h17M170 161h6M312 161h32M16 162h20M37 162h3M152 162h24M312 162h32M16 163h24M152 163h24M312 163h32M16 164h24M152 164h24M312 164h32M16 165h24M152 165h24M312 165h32M16 166h24M152 166h24M312 166h32M16 167h24M152 167h24M312 167h32M16 168h16M152 168h24M312 168h32M16 169h16M153 169h23M312 169h32M16 170h16M152 170h24M312 170h32M16 171h16M152 171h24M312 171h32M16 172h16M152 172h24M312 172h32M16 173h16M152 173h24M312 173h32M16 174h16M152 174h24M312 174h32M16 175h16M152 175h24M312 175h32M8 176h24M152 176h24M312 176h32M8 177h24M152 177h24M312 177h32M8 178h24M152 178h24M312 178h32M8 179h24M152 179h192M8 180h24M152 180h192M8 181h24M152 181h192M8 182h24M152 182h192M8 183h24M152 183h192M8 184h24M160 184h8M169 184h175M8 185h24M160 185h26M187 185h49M237 185h107M8 186h24M160 186h184M8 187h24M160 187h184M8 188h24M160 188h146M307 188h37M8 189h24M160 189h184M8 190h24M160 190h184M8 191h24M160 191h151M312 191h32M8 192h11M20 192h12M160 192h50M211 192h133M9 193h23M160 193h184M8 194h24M160 194h184M8 195h24M160 195h184M8 196h24M160 196h172M333 196h11M8 197h22M31 197h1M160 197h27M188 197h84M273 197h71M8 198h24M160 198h2M163 198h181M8 199h24M160 199h184M8 200h24M152 200h192M8 201h24M152 201h192M8 202h24M152 202h192M8 203h24M152 203h192M8 204h24M152 204h192M8 205h24M152 205h192M8 206h24M152 206h141M294 206h50M8 207h24M152 207h192M16 208h16M152 208h80M233 208h111M16 209h16M152 209h192M16 210h16M152 210h192M16 211h16M152 211h2M155 211h21M312 211h32M16 212h16M152 212h24M312 212h32M16 213h16M152 213h24M312 213h32M16 214h16M152 214h24M312 214h32M16 215h16M152 215h24M312 215h32M16 216h24M152 216h24M312 216h32M16 217h24M152 217h24M312 217h32M16 218h24M152 218h24M312 218h32M16 219h24M152 219h24M312 219h32M16 220h24M152 220h24M312 220h32M16 221h24M152 221h24M312 221h32M16 222h24M152 222h24M312 222h32M16 223h24M152 223h24M312 223h32M16 224h24M144 224h24M312 224h32M16 225h24M144 225h24M312 225h32M16 226h24M144 226h24M312 226h32M16 227h24M144 227h24M312 227h32M16 228h24M144 228h24M312 228h32M16 229h24M144 229h24M312 229h32M16 230h12M29 230h11M144 230h24M312 230h32M16 231h24M144 231h24M312 231h32M24 232h24M136 232h32M312 232h32M24 233h24M136 233h32M312 233h32M24 234h5M30 234h18M136 234h32M312 234h32M24 235h24M136 235h32M312 235h32M24 236h24M136 236h32M312 236h32M24 237h24M136 237h32M312 237h32M24 238h24M136 238h32M312 238h32M24 239h24M136 239h32M312 239h32M32 240h32M128 240h32M312 240h32M32 241h32M128 241h32M312 241h32M32 242h32M128 242h32M312 242h32M32 243h32M128 243h32M312 243h32M32 244h32M128 244h32M312 244h32M32 245h32M128 245h32M312 245h32M32 246h32M128 246h32M312 246h32M32 247h32M128 247h32M312 247h32M40 248h40M112 248h40M312 248h32M40 249h40M112 249h40M312 249h9M322 249h22M40 250h40M112 250h40M312 250h32M40 251h40M112 251h34M147 251h5M312 251h32M40 252h40M112 252h40M312 252h32M40 253h40M112 253h40M312 253h32M40 254h34M75 254h5M112 254h40M312 254h32M40 255h40M112 255h40M312 255h32M48 256h96M312 256h32M48 257h96M312 257h32M48 258h96M312 258h32M48 259h96M312 259h32M48 260h96M312 260h32M48 261h96M312 261h32M48 262h96M312 262h32M48 263h96M312 263h32M64 264h64M312 264h32M64 265h64M312 265h32M64 266h64M312 266h32M64 267h64M312 267h32M64 268h64M312 268h32M64 269h64M312 269h32M64 270h64M312 270h32M64 271h64M312 271h32M312 272h32M312 273h32M312 274h32M312 275h32M312 276h3M316 276h28M312 277h17M330 277h14M312 278h32M312 279h32M312 280h32M312 281h32M312 282h32M312 283h32M312 284h32M312 285h32M312 286h32M312 287h32M312 288h32M312 289h32M312 290h32M312 291h32M312 292h32M312 293h32M312 294h32M312 295h32M312 296h32M312 297h32M312 298h32M312 299h32M312 300h32M312 301h32M312 302h32M312 303h32M312 304h32M312 305h32M312 306h32M312 307h32M312 308h32M312 309h32M312 310h32M312 311h32M312 312h32M312 313h32M312 314h32M312 315h32M312 316h32M312 317h32M312 318h32M312 319h32M312 320h32M312 321h32M312 322h32M312 323h32M312 324h32M312 325h32M312 326h7M320 326h24M312 327h8M321 327h23M312 328h32M312 329h32M312 330h32M312 331h32M312 332h32M312 333h32M312 334h32M312 335h32M312 336h32M312 337h32M312 338h32M312 339h32M312 340h32M312 341h18M331 341h13M312 342h32M312 343h32M312 344h32M312 345h32M312 346h32M312 347h32M312 348h32M312 349h32M312 350h32M312 351h32M312 352h32M312 353h32M312 354h32M312 355h32M312 356h32M312 357h32M312 358h32M312 359h32M312 360h32M312 361h6M319 361h25M312 362h32M312 363h32M312 364h32M312 365h32M312 366h32M312 367h32M312 368h25M338 368h6" />
<path stroke="#32CD32" d="M342 77h1M337 118h1M113 120h1M323 123h1M111 127h1M111 128h1M132 131h1M327 131h1M169 161h1M186 185h1M236 185h1M311 191h1M332 196h1M187 197h1M162 198h1M293 206h1M154 211h1M29 234h1M315 276h1M330 341h1M337 368h1" />
<path stroke="#32CD32" d="M336 98h1M35 138h1M154 138h1M17 153h1M17 156h1M338 157h1M152 169h1M168 184h1M306 188h1M19 192h1M8 193h1M272 197h1M28 230h1M74 254h1M319 326h1M320 327h1" />
<path stroke="#32CD32" d="M129 125h1M335 127h1M321 130h1M36 162h1M210 192h1M30 197h1M232 208h1M321 249h1M146 251h1M329 277h1M318 361h1" />
</svg>