<svg xmlns="http://www.w3.org/2000/svg" viewBox="0 -0.5 400 400" shape-rendering="crispEdges">
<metadata>Made with Pixels to Svg https://codepen.io/shshaw/pen/XbxvNj</metadata>
<path stroke="#32CD32" d="M312 0h32M312 1h32M312 2h32M312 3h32M312 4h32M312 5h32M312 6h32M312 7h31M312 8h32M312 9h32M312 10h32M312 11h32M312 12h32M312 13h32M312 14h32M312 15h32M296 16h16M344 16h16M296 17h16M344 17h16M296 18h16M344 18h16M296 19h16M344 19h16M296 20h16M344 20h16M296 21h16M344 21h16M296 22h16M344 22h16M296 23h16M344 23h16M296 24h16M344 24h16M296 25h16M344 25h16M296 26h16M344 26h16M296 27h16M344 27h16M296 28h16M344 28h16M296 29h16M344 29h16M296 30h16M344 30h16M296 31h16M344 31h16M296 32h16M344 32h16M296 33h16M344 33h16M296 34h16M344 34h16M296 35h16M344 35h16M296 36h16M344 36h16M296 37h16M344 37h16M296 38h16M344 38h16M296 39h16M344 39h16M296 40h16M344 40h16M296 41h16M344 41h16M296 42h16M344 42h16M296 43h16M344 43h16M296 44h16M344 44h16M296 45h16M344 45h16M296 46h16M344 46h16M296 47h16M344 47h16M312 48h32M312 49h32M312 50h32M312 51h32M312 52h32M312 53h32M312 54h32M312 55h32M312 56h32M312 57h32M312 58h32M312 59h32M312 60h32M312 61h32M312 62h32M312 63h32M312 64h32M312 65h32M312 66h32M312 67h32M312 68h32M312 69h32M312 70h32M312 71h32M312 72h32M312 73h32M312 74h32M312 75h32M312 76h32M312 77h32M312 78h32M312 79h32M312 80h32M312 81h32M312 82h32M312 83h32M312 84h32M312 85h32M312 86h32M312 87h32M312 88h32M312 89h32M312 90h32M312 91h32M312 92h32M312 93h5M318 93h15M334 93h10M312 94h32M312 95h32M312 96h32M312 97h32M312 98h32M312 99h13M326 99h18M312 100h32M312 101h5M318 101h26M312 102h32M312 103h32M312 104h32M312 105h32M312 106h32M312 107h32M312 108h32M312 109h32M312 110h32M312 111h32M64 112h56M312 112h32M64 113h56M312 113h32M64 114h56M312 114h32M64 115h56M312 115h32M64 116h56M312 116h32M64 117h56M312 117h32M64 118h56M312 118h32M64 119h56M312 119h32M48 120h88M312 120h32M48 121h88M312 121h32M48 122h88M312 122h32M48 123h26M75 123h61M312 123h32M48 124h88M312 124h32M48 125h54M103 125h33M312 125h32M48 126h88M312 126h32M48 127h88M312 127h32M40 128h40M104 128h48M312 128h32M40 129h24M65 129h15M104 129h48M312 129h27M340 129h4M40 130h40M104 130h48M312 130h32M40 131h40M104 131h47M312 131h32M40 132h40M104 132h48M312 132h32M40 133h40M104 133h48M312 133h32M40 134h40M104 134h48M312 134h32M40 135h40M104 135h48M312 135h32M32 136h32M128 136h32M312 136h32M32 137h20M53 137h11M128 137h32M312 137h32M32 138h32M128 138h32M312 138h32M32 139h32M128 139h32M312 139h32M32 140h32M128 140h32M312 140h32M32 141h32M128 141h32M312 141h32M32 142h32M128 142h32M312 142h32M32 143h32M128 143h32M312 143h15M328 143h16M24 144h12M37 144h11M136 144h24M312 144h32M24 145h24M136 145h24M312 145h32M24 146h24M136 146h24M312 146h32M24 147h24M136 147h24M312 147h32M24 148h24M136 148h24M312 148h32M24 149h24M136 149h24M312 149h32M24 150h24M136 150h24M312 150h32M24 151h24M136 151h24M312 151h32M16 152h24M144 152h24M312 152h32M16 153h24M144 153h24M312 153h32M16 154h24M144 154h24M312 154h32M16 155h24M144 155h24M312 155h32M16 156h24M144 156h24M312 156h32M16 157h24M144 157h24M312 157h32M16 158h24M144 158h24M312 158h32M16 159h24M144 159h24M312 159h32M16 160h24M152 160h24M312 160h32M16 161h24M152 161h24M312 161h32M16 162h24M152 162h24M312 162h32M16 163h24M152 163h24M312 163h32M16 164h24M152 164h24M312 164h32M16 165h24M152 165h24M312 165h32M16 166h24M152 166h24M312 166h32M16 167h24M152 167h24M312 167h32M16 168h16M152 168h24M312 168h32M16 169h16M152 169h24M312 169h32M16 170h16M152 170h24M312 170h32M16 171h16M152 171h24M312 171h32M16 172h16M152 172h24M312 172h32M16 173h16M152 173h24M312 173h32M16 174h16M152 174h24M312 174h32M16 175h16M152 175h24M312 175h32M8 176h24M152 176h24M312 176h32M8 177h24M152 177h15M168 177h8M312 177h32M8 178h24M152 178h24M312 178h32M8 179h24M152 179h192M8 180h24M152 180h192M8 181h24M152 181h192M8 182h24M152 182h3M156 182h188M8 183h24M152 183h181M334 183h10M8 184h24M160 184h184M8 185h24M160 185h184M8 186h24M160 186h14M175 186h169M8 187h24M160 187h184M8 188h24M160 188h184M8 189h24M160 189h129M290 189h54M8 190h24M160 190h148M309 190h35M8 191h24M160 191h184M8 192h24M160 192h89M250 192h94M8 193h24M160 193h184M8 194h24M160 194h102M263 194h60M324 194h20M8 195h24M160 195h184M8 196h24M160 196h184M8 197h24M160 197h184M8 198h24M160 198h67M228 198h116M8 199h24M160 199h184M8 200h24M152 200h1M154 200h190M8 201h24M152 201h192M8 202h24M152 202h192M8 203h24M152 203h192M8 204h24M152 204h25M178 204h166M8 205h24M152 205h192M8 206h24M152 206h192M8 207h24M152 207h192M16 208h16M152 208h192M16 209h16M152 209h192M16 210h16M152 210h192M16 211h16M152 211h24M312 211h32M16 212h16M152 212h24M312 212h32M16 213h16M152 213h24M312 213h25M338 213h6M16 214h16M152 214h24M312 214h32M16 215h16M152 215h24M312 215h32M16 216h24M152 216h24M312 216h32M16 217h24M152 217h24M312 217h32M16 218h24M152 218h24M312 218h32M16 219h24M152 219h24M312 219h32M16 220h24M152 220h24M312 220h32M16 221h24M152 221h24M312 221h32M16 222h24M152 222h24M312 222h32M16 223h24M152 223h24M312 223h32M16 224h24M144 224h24M312 224h32M16 225h24M144 225h24M312 225h6M319 225h25M16 226h24M144 226h24M312 226h32M16 227h10M27 227h13M144 227h24M312 227h32M16 228h24M144 228h24M312 228h32M16 229h24M144 229h24M312 229h32M16 230h24M144 230h24M312 230h32M16 231h24M144 231h24M312 231h32M24 232h14M39 232h9M136 232h32M312 232h32M24 233h24M136 233h32M312 233h32M24 234h24M136 234h32M312 234h32M24 235h24M136 235h12M149 235h19M312 235h32M24 236h24M136 236h32M312 236h32M24 237h16M41 237h7M136 237h32M312 237h32M24 238h24M136 238h32M312 238h32M24 239h24M136 239h32M312 239h32M32 240h32M128 240h32M312 240h32M32 241h21M54 241h10M128 241h32M312 241h32M32 242h32M128 242h32M312 242h32M32 243h32M128 243h32M312 243h32M32 244h32M128 244h32M312 244h32M32 245h32M128 245h32M312 245h32M32 246h32M128 246h32M312 246h32M32 247h32M128 247h32M312 247h32M40 248h40M112 248h40M312 248h32M40 249h40M112 249h40M312 249h32M40 250h40M112 250h40M312 250h32M40 251h40M112 251h40M312 251h32M40 252h40M112 252h40M312 252h32M40 253h5M46 253h34M112 253h40M312 253h32M40 254h40M112 254h40M312 254h32M40 255h40M112 255h40M312 255h32M48 256h96M312 256h32M48 257h34M83 257h61M312 257h32M48 258h96M312 258h32M48 259h96M312 259h32M48 260h96M312 260h32M48 261h36M85 261h59M312 261h32M48 262h96M312 262h32M48 263h96M312 263h7M320 263h24M64 264h64M312 264h32M64 265h64M312 265h32M64 266h64M312 266h32M64 267h64M312 267h32M64 268h64M312 268h32M64 269h64M312 269h32M64 270h57M122 270h6M312 270h21M334 270h10M64 271h64M312 271h32M312 272h32M312 273h24M337 273h7M312 274h32M312 275h32M312 276h32M312 277h32M312 278h32M312 279h32M312 280h32M312 281h32M312 282h32M312 283h32M312 284h32M312 285h32M312 286h32M312 287h32M264 288h128M264 289h128M264 290h128M264 291h128M264 292h128M264 293h128M264 294h128M264 295h128M264 296h128M264 297h128M264 298h44M309 298h9M319 298h73M264 299h128M264 300h128M264 301h128M264 302h128M264 303h128M280 304h96M280 305h78M359 305h17M280 306h88M369 306h7M280 307h96M280 308h96M280 309h86M367 309h9M280 310h96M280 311h88M369 311h7M280 312h96M280 313h96M280 314h96M280 315h96M280 316h96M280 317h96M280 318h96M280 319h96M280 320h96M280 321h29M310 321h66M280 322h96M280 323h23M304 323h72M280 324h96M280 325h96M280 326h91M372 326h4M280 327h96M280 328h49M330 328h46M280 329h96M280 330h96M280 331h79M360 331h16M280 332h20M301 332h75M280 333h96M280 334h96M280 335h96M296 336h64M296 337h64M296 338h64M296 339h64M296 340h20M317 340h43M296 341h54M351 341h9M296 342h64M296 343h64M296 344h64M296 345h64M296 346h64M296 347h64M296 348h64M296 349h64M296 350h64M296 351h64M296 352h64M296 353h64M296 354h64M296 355h64M296 356h64M296 357h64M296 358h64M296 359h64M296 360h64M296 361h64M296 362h64M296 363h64M296 364h14M311 364h49M296 365h64M296 366h64M296 367h64M312 368h32M312 369h32M312 370h32M312 371h32M312 372h32M312 373h32M312 374h32M312 375h32M312 376h32M312 377h32M312 378h32M312 379h32M312 380h32M312 381h31M312 382h32M312 383h32M312 384h32M312 385h32M312 386h32M312 387h32M312 388h32M312 389h32M312 390h32M312 391h32M312 392h32M312 393h32M312 394h32M312 395h32M312 396h32M312 397h17M330 397h14M312 398h32M312 399h32" />
<path stroke="#32CD32" d="M343 7h1M339 129h1M52 137h1M327 143h1M36 144h1M174 186h1M318 225h1M40 237h1M358 305h1M309 321h1M303 323h1M300 332h1" />
<path stroke="#32CD32" d="M317 93h1M333 93h1M317 101h1M74 123h1M151 131h1M167 177h1M308 190h1M153 200h1M177 204h1M337 213h1M26 227h1M38 232h1M148 235h1M53 241h1M84 261h1M319 263h1M121 270h1M308 298h1M368 306h1M366 309h1M368 311h1M371 326h1M329 328h1M359 331h1M329 397h1" />
<path stroke="#32CD32" d="M325 99h1M102 125h1M64 129h1M155 182h1M333 183h1M289 189h1M249 192h1M262 194h1M323 194h1M227 198h1M45 253h1M82 257h1M333 270h1M336 273h1M318 298h1M316 340h1M350 341h1M310 364h1M343 381h1" />
</svg>