<svg xmlns="http://www.w3.org/2000/svg" viewBox="0 -0.5 400 400" shape-rendering="crispEdges">
<metadata>Made with Pixels to Svg https://codepen.io/shshaw/pen/XbxvNj</metadata>
<path stroke="#32CD32" d="M184 16h8M184 17h8M184 18h8M184 19h8M184 20h8M184 21h8M184 22h8M184 23h8M208 128h8M208 129h8M208 130h8M208 131h8M208 132h8M208 133h8M208 134h8M208 135h8" />
<path stroke="#32CD32" d="M192 16h8M192 17h8M192 18h8M192 19h8M192 20h8M192 21h8M192 22h8M192 23h8M168 24h56M168 25h56M168 26h46M215 26h9M168 27h20M189 27h35M168 28h56M168 29h56M168 30h56M168 31h56M160 32h72M160 33h72M160 34h72M160 35h72M160 36h72M160 37h72M160 38h26M187 38h45M160 39h72M152 40h24M216 40h24M152 41h24M216 41h24M152 42h24M216 42h24M152 43h24M216 43h24M152 44h24M216 44h24M152 45h24M216 45h24M152 46h24M216 46h24M152 47h24M216 47h24M144 48h24M224 48h24M144 49h24M224 49h24M144 50h24M224 50h24M144 51h24M224 51h24M144 52h24M224 52h24M144 53h24M224 53h24M144 54h24M224 54h22M247 54h1M144 55h24M224 55h24M144 56h16M232 56h16M144 57h16M232 57h16M144 58h16M232 58h5M238 58h10M144 59h16M232 59h16M144 60h9M154 60h6M232 60h16M144 61h16M232 61h16M144 62h16M232 62h16M144 63h16M232 63h16M144 64h16M232 64h24M144 65h16M232 65h24M144 66h16M232 66h24M144 67h16M232 67h24M144 68h16M232 68h24M144 69h16M232 69h24M144 70h16M232 70h24M144 71h16M232 71h24M136 72h24M232 72h20M253 72h3M136 73h24M232 73h24M136 74h24M232 74h24M136 75h24M232 75h24M136 76h24M232 76h24M136 77h24M232 77h24M136 78h24M232 78h24M136 79h24M232 79h24M128 80h32M232 80h32M128 81h32M232 81h32M128 82h32M232 82h32M128 83h32M232 83h32M128 84h32M232 84h32M128 85h32M232 85h32M128 86h32M232 86h32M128 87h32M232 87h32M112 88h48M232 88h48M112 89h48M232 89h48M112 90h5M118 90h42M232 90h48M112 91h48M232 91h48M112 92h48M232 92h48M112 93h48M232 93h19M252 93h28M112 94h48M232 94h34M267 94h13M112 95h48M232 95h48M104 96h32M144 96h24M224 96h24M256 96h32M104 97h32M144 97h24M224 97h5M230 97h18M256 97h32M104 98h32M144 98h24M224 98h24M256 98h32M104 99h32M144 99h24M224 99h24M257 99h31M104 100h32M144 100h24M224 100h24M256 100h32M104 101h32M144 101h24M224 101h24M256 101h32M104 102h32M144 102h24M224 102h24M256 102h32M104 103h32M144 103h24M224 103h24M256 103h32M96 104h24M152 104h24M216 104h24M272 104h24M96 105h24M152 105h24M216 105h24M272 105h24M96 106h24M152 106h24M216 106h24M272 106h24M96 107h24M152 107h24M216 107h24M272 107h24M96 108h24M152 108h24M216 108h24M272 108h24M96 109h24M152 109h24M216 109h24M272 109h24M96 110h24M152 110h24M216 110h24M272 110h24M96 111h24M152 111h24M216 111h24M272 111h24M88 112h24M160 112h51M212 112h28M280 112h24M88 113h24M160 113h16M177 113h63M280 113h24M88 114h24M160 114h80M280 114h24M88 115h24M160 115h80M280 115h24M88 116h14M103 116h9M160 116h80M280 116h24M88 117h24M160 117h80M280 117h24M88 118h24M160 118h80M280 118h24M88 119h24M160 119h80M280 119h24M80 120h24M168 120h56M288 120h24M80 121h24M168 121h56M288 121h24M80 122h24M168 122h56M288 122h24M80 123h24M168 123h56M288 123h24M80 124h24M168 124h56M288 124h19M308 124h4M80 125h24M168 125h56M288 125h24M80 126h24M168 126h56M288 126h24M80 127h24M168 127h56M288 127h24M72 128h24M184 128h24M296 128h24M72 129h24M184 129h24M296 129h24M72 130h24M184 130h24M296 130h24M72 131h24M184 131h24M296 131h24M72 132h24M184 132h24M296 132h24M72 133h24M184 133h24M296 133h24M72 134h24M184 134h24M296 134h24M72 135h24M184 135h24M296 135h24M72 136h16M304 136h24M72 137h16M304 137h24M72 138h16M304 138h24M72 139h16M304 139h24M72 140h16M304 140h24M72 141h16M304 141h24M72 142h16M304 142h24M72 143h16M304 143h24M64 144h16M312 144h16M64 145h16M312 145h16M64 146h16M312 146h16M64 147h16M312 147h16M64 148h16M312 148h16M64 149h16M312 149h16M64 150h16M312 150h16M64 151h16M312 151h16M56 152h24M312 152h24M56 153h24M312 153h24M56 154h24M313 154h23M56 155h24M312 155h24M56 156h24M312 156h24M56 157h24M312 157h24M56 158h24M312 158h24M56 159h24M312 159h24M56 160h16M320 160h16M56 161h16M320 161h16M56 162h16M320 162h16M56 163h16M320 163h16M56 164h16M320 164h16M56 165h16M320 165h16M56 166h16M320 166h16M56 167h16M320 167h16M56 168h16M320 168h24M56 169h16M320 169h24M56 170h16M320 170h24M56 171h16M320 171h24M56 172h16M320 172h24M56 173h16M320 173h24M56 174h16M320 174h24M56 175h16M320 175h24M48 176h24M320 176h24M48 177h24M320 177h24M48 178h24M320 178h24M48 179h24M320 179h24M48 180h24M320 180h24M48 181h24M320 181h24M48 182h24M320 182h24M48 183h24M320 183h24M48 184h16M328 184h16M48 185h16M328 185h16M48 186h16M328 186h16M48 187h16M328 187h16M48 188h16M328 188h16M48 189h16M328 189h16M48 190h16M328 190h16M48 191h16M328 191h16M48 192h16M328 192h16M48 193h16M328 193h16M48 194h16M328 194h16M48 195h3M52 195h2M55 195h9M328 195h16M48 196h16M328 196h16M48 197h16M328 197h16M48 198h16M328 198h16M48 199h16M328 199h16M48 200h16M328 200h24M48 201h16M328 201h24M48 202h16M328 202h24M48 203h16M328 203h24M48 204h16M328 204h24M48 205h16M328 205h24M48 206h16M328 206h24M48 207h16M328 207h24M48 208h16M328 208h24M48 209h16M328 209h24M48 210h16M328 210h24M48 211h16M328 211h24M48 212h16M328 212h24M48 213h16M328 213h24M48 214h16M328 214h24M48 215h16M328 215h24M48 216h16M328 216h24M48 217h16M328 217h24M48 218h16M328 218h24M48 219h16M328 219h24M48 220h16M328 220h24M48 221h16M328 221h24M48 222h16M328 222h24M48 223h16M328 223h24M40 224h27M68 224h28M304 224h48M40 225h56M304 225h48M40 226h56M304 226h48M40 227h56M304 227h48M40 228h56M304 228h48M40 229h56M304 229h48M40 230h56M304 230h34M339 230h13M40 231h56M304 231h48M32 232h72M288 232h72M32 233h72M288 233h72M32 234h72M288 234h72M32 235h72M288 235h72M32 236h72M288 236h72M32 237h72M288 237h72M32 238h27M60 238h44M288 238h72M32 239h72M288 239h72M24 240h24M88 240h24M280 240h32M344 240h24M24 241h24M88 241h24M280 241h11M292 241h20M344 241h24M24 242h24M88 242h24M280 242h32M344 242h24M24 243h24M88 243h24M280 243h32M344 243h24M24 244h24M88 244h24M280 244h32M344 244h24M24 245h24M88 245h24M280 245h32M344 245h24M24 246h24M88 246h24M280 246h32M344 246h24M24 247h24M88 247h24M280 247h32M344 247h24M16 248h24M96 248h24M280 248h16M352 248h24M16 249h24M96 249h24M280 249h16M352 249h24M16 250h24M96 250h24M280 250h16M352 250h24M16 251h24M96 251h24M280 251h16M352 251h24M16 252h24M96 252h24M280 252h16M352 252h24M16 253h24M96 253h24M280 253h16M352 253h24M16 254h24M96 254h24M280 254h16M352 254h24M16 255h9M26 255h14M96 255h24M280 255h16M352 255h24M16 256h16M104 256h16M272 256h24M360 256h16M16 257h16M104 257h16M272 257h24M360 257h16M16 258h16M104 258h16M272 258h24M360 258h16M16 259h16M104 259h16M272 259h24M360 259h16M16 260h16M104 260h16M272 260h24M360 260h16M16 261h16M104 261h16M272 261h24M360 261h16M16 262h16M104 262h16M272 262h24M360 262h16M16 263h16M104 263h16M272 263h24M360 263h16M16 264h16M104 264h3M108 264h20M272 264h16M360 264h24M16 265h16M104 265h24M272 265h16M360 265h24M16 266h16M104 266h24M272 266h16M360 266h24M16 267h16M104 267h24M272 267h16M360 267h24M16 268h16M104 268h24M272 268h16M360 268h24M16 269h16M104 269h24M272 269h16M360 269h24M16 270h16M104 270h24M272 270h16M360 270h24M16 271h16M104 271h24M272 271h16M360 271h24M16 272h16M104 272h24M272 272h16M360 272h27M16 273h16M104 273h24M272 273h16M360 273h27M16 274h16M104 274h24M272 274h16M360 274h27M16 275h16M104 275h24M272 275h16M360 275h27M16 276h16M104 276h24M272 276h16M360 276h27M16 277h16M104 277h24M272 277h16M360 277h27M16 278h16M104 278h24M272 278h16M360 278h27M16 279h16M104 279h24M272 279h16M360 279h27M16 280h16M104 280h24M272 280h16M360 280h24M16 281h16M104 281h24M272 281h16M360 281h1M362 281h22M16 282h16M104 282h24M272 282h1M274 282h14M360 282h24M16 283h16M104 283h24M272 283h16M360 283h24M16 284h16M104 284h9M114 284h14M272 284h16M360 284h24M16 285h16M104 285h24M272 285h16M360 285h24M16 286h16M104 286h24M272 286h16M360 286h24M16 287h16M104 287h24M272 287h16M360 287h24M16 288h16M104 288h16M272 288h16M360 288h24M16 289h16M104 289h16M272 289h16M360 289h24M16 290h16M104 290h16M272 290h16M360 290h24M16 291h16M104 291h16M272 291h16M360 291h24M16 292h16M104 292h16M272 292h16M360 292h24M16 293h16M104 293h16M272 293h16M360 293h24M16 294h16M104 294h16M272 294h16M360 294h24M16 295h16M104 295h14M119 295h1M272 295h16M360 295h24M16 296h24M104 296h16M272 296h24M360 296h16M16 297h24M104 297h16M272 297h24M360 297h16M16 298h24M104 298h16M272 298h24M360 298h16M16 299h13M30 299h10M104 299h16M272 299h24M360 299h16M16 300h24M104 300h16M272 300h24M360 300h16M16 301h24M104 301h16M272 301h24M360 301h16M16 302h24M104 302h16M272 302h24M360 302h16M16 303h24M104 303h10M115 303h5M272 303h24M360 303h16M24 304h16M96 304h24M280 304h24M352 304h24M24 305h16M96 305h24M280 305h24M352 305h24M24 306h16M96 306h24M280 306h24M352 306h24M24 307h16M96 307h24M280 307h24M352 307h24M24 308h16M96 308h24M280 308h24M352 308h24M24 309h16M96 309h24M280 309h24M352 309h24M24 310h16M96 310h21M118 310h2M280 310h24M352 310h24M24 311h16M96 311h24M280 311h24M352 311h24M24 312h88M288 312h80M24 313h88M288 313h33M322 313h46M24 314h88M288 314h80M24 315h68M93 315h19M288 315h80M24 316h18M43 316h69M288 316h19M308 316h60M24 317h88M288 317h80M24 318h88M288 318h80M24 319h88M288 319h80M40 320h72M280 320h80M40 321h72M280 321h80M40 322h72M280 322h80M40 323h72M280 323h80M40 324h72M280 324h80M40 325h72M280 325h80M40 326h72M280 326h80M40 327h72M280 327h80M48 328h72M272 328h24M312 328h32M48 329h72M272 329h24M312 329h32M48 330h72M272 330h24M312 330h32M48 331h72M272 331h24M312 331h29M342 331h2M48 332h72M272 332h2M275 332h21M312 332h32M48 333h72M272 333h24M312 333h7M320 333h24M48 334h72M272 334h24M312 334h27M340 334h4M48 335h72M272 335h24M312 335h32M104 336h32M256 336h32M104 337h32M256 337h32M104 338h32M256 338h32M104 339h32M256 339h32M104 340h32M256 340h32M104 341h32M256 341h32M104 342h32M256 342h32M104 343h32M256 343h32M112 344h40M240 344h40M112 345h40M240 345h40M112 346h40M240 346h40M112 347h40M240 347h40M112 348h40M240 348h35M276 348h4M112 349h40M240 349h37M278 349h2M112 350h40M240 350h40M112 351h40M240 351h40M128 352h136M128 353h136M128 354h136M128 355h136M128 356h136M128 357h136M128 358h136M128 359h136M144 360h104M144 361h104M144 362h48M193 362h55M144 363h104M144 364h104M144 365h17M162 365h86M144 366h93M238 366h10M144 367h104M176 368h40M176 369h40M176 370h40M176 371h40M176 372h40M176 373h40M176 374h30M207 374h9M176 375h40M192 376h8M192 377h8" />
<path stroke="#32CD32" d="M200 16h8M200 17h8M200 18h8M200 19h8M200 20h8M200 21h8M200 22h8M200 23h8M40 216h8M40 217h8M40 218h8M40 219h8M40 220h8M40 221h8M40 222h8M40 223h8M152 344h8M152 345h8M152 346h8M152 347h8M152 348h8M152 349h8M152 350h8M152 351h8" />
<path stroke="#32CD32" d="M224 24h8M224 25h8M224 26h8M224 27h8M224 28h8M224 29h8M224 30h8M224 31h8M88 136h8M88 137h8M88 138h8M88 139h8M88 140h8M88 141h8M88 142h8M88 143h8" />
<path stroke="#32CD32" d="M214 26h1M188 27h1M246 54h1M237 58h1M266 94h1M256 99h1M176 113h1M312 154h1M51 195h1M59 238h1M107 264h1M29 299h1M114 303h1M117 310h1M42 316h1M341 331h1M319 333h1M339 334h1M192 362h1M237 366h1" />
<path stroke="#32CD32" d="M152 32h8M152 33h8M152 34h8M152 35h8M152 36h8M152 37h8M152 38h8M152 39h8M248 360h8M248 361h8M248 362h8M248 363h8M248 364h8M248 365h8M248 366h8M248 367h8" />
<path stroke="#32CD32" d="M232 32h8M232 33h8M232 34h8M232 35h8M232 36h8M232 37h8M232 38h8M232 39h8M240 104h8M296 104h8M240 105h8M296 105h8M240 106h8M296 106h8M240 107h8M296 107h8M240 108h8M296 108h8M240 109h8M296 109h8M240 110h8M296 110h8M240 111h8M296 111h8M304 112h8M304 113h8M304 114h8M304 115h8M304 116h8M304 117h8M304 118h8M304 119h8M304 144h8M304 145h8M304 146h8M304 147h8M304 148h8M304 149h8M304 150h8M304 151h8M48 168h8M48 169h8M48 170h8M48 171h8M48 172h8M48 173h8M48 174h8M48 175h8M64 184h8M64 185h8M64 186h8M64 187h8M64 188h8M64 189h8M64 190h8M64 191h8M360 232h8M360 233h7M360 234h8M360 235h8M360 236h8M360 237h8M360 238h8M360 239h8" />
<path stroke="#32CD32" d="M186 38h1M153 60h1M252 72h1M251 93h1M229 97h1M211 112h1M307 124h1M67 224h1M25 255h1M113 284h1M274 332h1M275 348h1" />
<path stroke="#32CD32" d="M144 40h8M144 41h8M144 42h8M144 43h8M144 44h8M144 45h8M144 46h8M144 47h8M320 184h8M320 185h8M320 186h8M320 187h8M320 188h8M320 189h8M320 190h8M320 191h8M320 216h8M320 217h8M320 218h8M320 219h8M320 220h8M320 221h8M320 222h8M320 223h8M40 248h8M40 249h8M40 250h8M40 251h8M40 252h8M40 253h8M40 254h8M40 255h8M264 328h8M264 329h8M264 330h8M264 331h8M264 332h8M264 333h8M264 334h8M264 335h8M280 344h8M280 345h8M280 346h8M280 347h8M280 348h8M280 349h8M280 350h8M280 351h8" />
<path stroke="#32CD32" d="M176 40h8M176 41h8M176 42h8M176 43h8M176 44h8M176 45h8M176 46h8M176 47h8M288 96h8M288 97h8M288 98h8M288 99h8M288 100h8M288 101h8M288 102h8M288 103h8M88 104h8M88 105h8M88 106h8M88 107h8M88 108h8M88 109h8M88 110h8M88 111h5M94 111h2M80 112h8M80 113h8M80 114h8M80 115h8M80 116h8M80 117h8M80 118h8M80 119h8M312 120h8M312 121h8M312 122h8M312 123h8M312 124h8M312 125h8M312 126h8M312 127h8M312 160h8M312 161h8M312 162h8M312 163h8M312 164h8M312 165h8M312 166h8M312 167h8M344 304h8M344 305h8M344 306h8M344 307h8M344 308h8M344 309h8M344 310h8M344 311h8" />
<path stroke="#32CD32" d="M208 40h8M208 41h8M208 42h8M208 43h8M208 44h8M208 45h8M208 46h8M208 47h8M160 56h8M248 56h8M160 57h8M248 57h8M160 58h8M248 58h8M160 59h8M248 59h8M160 60h8M248 60h8M160 61h8M248 61h8M160 62h8M248 62h8M160 63h8M248 63h8M112 240h8M112 241h8M112 242h8M112 243h8M112 244h8M112 245h8M112 246h8M112 247h8" />
<path stroke="#32CD32" d="M240 40h8M240 41h8M240 42h8M240 43h8M240 44h8M240 45h8M240 46h8M240 47h8M120 328h8M120 329h8M120 330h8M120 331h8M120 332h8M120 333h8M120 334h8M120 335h8" />
<path stroke="#32CD32" d="M136 64h8M136 65h8M136 66h8M136 67h8M136 68h8M136 69h8M136 70h8M136 71h8" />
<path stroke="#32CD32" d="M264 80h8M264 81h8M264 82h8M264 83h8M264 84h8M264 85h8M264 86h8M264 87h8M288 288h8M288 289h8M288 290h8M288 291h8M288 292h8M288 293h8M288 294h8M288 295h8" />
<path stroke="#32CD32" d="M117 90h1M102 116h1M54 195h1M338 230h1M291 241h1M361 281h1M273 282h1M118 295h1M321 313h1M92 315h1M307 316h1M277 349h1M161 365h1M206 374h1" />
<path stroke="#32CD32" d="M136 96h8M136 97h8M136 98h8M136 99h8M136 100h8M136 101h8M136 102h8M136 103h8M152 112h8M152 113h5M158 113h2M152 114h8M152 115h8M152 116h8M152 117h8M152 118h8M152 119h8M64 136h8M64 137h8M64 138h8M64 139h8M64 140h8M64 141h8M64 142h8M64 143h8M80 144h8M80 145h8M80 146h8M80 147h8M80 148h8M80 149h8M80 150h8M80 151h8M96 296h8M96 297h8M96 298h8M96 299h8M96 300h8M96 301h8M96 302h8M96 303h8M32 320h8M32 321h8M32 322h8M32 323h8M32 324h8M32 325h8M32 326h8M32 327h8M304 328h8M304 329h8M304 330h8M304 331h8M304 332h8M304 333h8M304 334h8M304 335h8" />
<path stroke="#32CD32" d="M248 96h8M248 97h8M248 98h8M248 99h8M248 100h8M248 101h8M248 102h8M248 103h8M72 160h8M72 161h8M72 162h8M72 163h8M72 164h8M72 165h8M72 166h8M72 167h8M296 224h8M296 225h8M296 226h8M296 227h8M296 228h8M296 229h8M296 230h8M296 231h8M272 248h8M272 249h8M272 250h8M272 251h8M272 252h8M272 253h8M272 254h8M272 255h8M376 256h8M376 257h8M376 258h8M376 259h8M376 260h8M376 261h8M376 262h8M376 263h8M88 304h8M88 305h8M88 306h8M88 307h8M88 308h8M88 309h8M88 310h8M88 311h8M264 352h8M264 353h8M264 354h8M264 355h8M264 356h8M264 357h8M264 358h8M264 359h8" />
<path stroke="#32CD32" d="M120 104h8M120 105h8M120 106h8M120 107h8M120 108h8M120 109h8M120 110h8M120 111h8" />
<path stroke="#32CD32" d="M144 104h8M144 105h8M144 106h8M144 107h8M144 108h8M144 109h8M144 110h8M144 111h8M352 296h8M352 297h8M352 298h8M352 299h8M352 300h8M352 301h8M352 302h8M352 303h8M232 344h8M232 345h8M232 346h8M232 347h8M232 348h8M232 349h8M232 350h8M232 351h8" />
<path stroke="#32CD32" d="M264 104h8M264 105h8M264 106h8M264 107h8M264 108h8M264 109h8M264 110h8M264 111h8M160 120h8M160 121h8M160 122h1M162 122h6M160 123h8M160 124h8M160 125h8M160 126h8M160 127h8M368 240h8M368 241h8M368 242h8M368 243h8M368 244h8M368 245h8M368 246h8M368 247h8M16 304h8M16 305h8M16 306h8M16 307h8M16 308h8M16 309h8M16 310h8M16 311h8M120 352h8M120 353h8M120 354h8M120 355h8M120 356h8M120 357h8M120 358h8M120 359h8" />
<path stroke="#32CD32" d="M93 111h1" />
<path stroke="#32CD32" d="M112 112h8M112 113h8M112 114h8M112 115h8M112 116h8M112 117h8M112 118h8M112 119h8M96 256h8M96 257h8M96 258h8M96 259h8M96 260h8M96 261h8M96 262h8M96 263h8" />
<path stroke="#32CD32" d="M157 113h1" />
<path stroke="#32CD32" d="M224 120h8M224 121h8M224 122h8M224 123h8M224 124h8M224 125h8M224 126h8M224 127h8" />
<path stroke="#32CD32" d="M161 122h1" />
<path stroke="#32CD32" d="M176 128h8M176 129h8M176 130h8M176 131h8M176 132h8M176 133h8M176 134h8M176 135h8" />
<path stroke="#32CD32" d="M328 144h8M328 145h8M328 146h8M328 147h8M328 148h8M328 149h8M328 150h8M328 151h8" />
<path stroke="#32CD32" d="M344 192h8M344 193h8M344 194h8M344 195h8M344 196h8M344 197h8M344 198h8M344 199h8M120 256h8M120 257h8M120 258h8M120 259h8M120 260h8M120 261h8M120 262h8M120 263h8" />
<path stroke="#32CD32" d="M40 200h8M40 201h8M40 202h8M40 203h8M40 204h8M40 205h8M40 206h8M40 207h8" />
<path stroke="#32CD32" d="M40 208h8M40 209h8M40 210h8M40 211h8M40 212h8M40 213h8M40 214h8M40 215h8" />
<path stroke="#32CD32" d="M64 216h8M64 217h8M64 218h8M64 219h8M64 220h8M64 221h8M64 222h8M64 223h8M376 296h8M376 297h8M376 298h8M376 299h8M376 300h8M376 301h8M376 302h8M376 303h8M344 328h8M344 329h8M344 330h8M344 331h8M344 332h8M344 333h8M344 334h8M344 335h8" />
<path stroke="#32CD32" d="M104 232h8M104 233h8M104 234h8M104 235h8M104 236h8M104 237h8M104 238h8M104 239h8M296 248h8M296 249h8M296 250h8M296 251h8M296 252h8M296 253h8M296 254h8M296 255h8" />
<path stroke="#32CD32" d="M367 233h1" />
<path stroke="#32CD32" d="M48 240h8M48 241h8M48 242h8M48 243h8M48 244h8M48 245h8M48 246h8M48 247h8M120 288h8M120 289h8M120 290h8M120 291h8M120 292h8M120 293h8M120 294h8M120 295h8M40 304h8M40 305h8M40 306h8M40 307h8M40 308h8M40 309h8M40 310h8M40 311h8M296 328h8M296 329h8M296 330h8M296 331h8M296 332h8M296 333h8M296 334h8M296 335h8" />
<path stroke="#32CD32" d="M80 240h8M80 241h8M80 242h8M80 243h8M80 244h8M80 245h8M80 246h8M80 247h8" />
<path stroke="#32CD32" d="M336 240h8M336 241h8M336 242h8M336 243h8M336 244h8M336 245h8M336 246h8M336 247h8" />
<path stroke="#32CD32" d="M32 256h8M32 257h4M37 257h3M32 258h8M32 259h8M32 260h8M32 261h8M32 262h8M32 263h8" />
<path stroke="#32CD32" d="M36 257h1" />
<path stroke="#32CD32" d="M8 264h8M8 265h8M8 266h8M8 267h8M8 268h8M8 269h8M8 270h8M8 271h8" />
<path stroke="#32CD32" d="M8 272h8M8 273h8M8 274h8M8 275h8M8 276h8M8 277h8M8 278h8M8 279h8" />
<path stroke="#32CD32" d="M264 272h8M264 273h8M264 274h8M264 275h8M264 276h8M264 277h8M264 278h8M264 279h8" />
<path stroke="#32CD32" d="M8 280h8M384 280h3M8 281h8M384 281h3M8 282h8M384 282h3M8 283h8M384 283h3M8 284h8M384 284h3M8 285h8M384 285h3M8 286h8M384 286h3M8 287h8M384 287h3" />
<path stroke="#32CD32" d="M272 304h8M272 305h8M272 306h8M272 307h8M272 308h8M272 309h8M272 310h8M272 311h8" />
<path stroke="#32CD32" d="M280 312h8M280 313h8M280 314h8M280 315h8M280 316h8M280 317h8M280 318h8M280 319h8M168 368h8M216 368h8M168 369h8M216 369h8M168 370h8M216 370h8M168 371h8M216 371h8M168 372h8M216 372h8M168 373h7M216 373h2M219 373h5M168 374h8M216 374h8M168 375h8M216 375h8" />
<path stroke="#32CD32" d="M96 336h8M96 337h8M96 338h8M96 339h8M96 340h8M96 341h8M96 342h8M96 343h8" />
<path stroke="#32CD32" d="M288 336h8M288 337h8M288 338h8M288 339h8M288 340h8M288 341h8M288 342h8M288 343h8" />
<path stroke="#32CD32" d="M136 360h8M136 361h8M136 362h8M136 363h8M136 364h8M136 365h8M136 366h8M136 367h8" />
<path stroke="#32CD32" d="M175 373h1M218 373h1" />
<path stroke="#32CD32" d="M184 376h8M184 377h8" />
<path stroke="#32CD32" d="M200 376h8M200 377h8" />
</svg>