<svg xmlns="http://www.w3.org/2000/svg" viewBox="0 -0.5 400 400" shape-rendering="crispEdges">
    <path stroke="rgba(0,0,0,0.01568627450980392)" d="M160 16h8M160 17h8M160 18h8M160 19h8M160 20h8M160 21h8M160 22h8M160 23h8M208 48h8M208 49h8M208 50h8M208 51h8M208 52h8M208 53h8M208 54h8M208 55h8M216 56h8M216 57h8M216 58h8M216 59h8M216 60h8M216 61h8M216 62h8M216 63h8M272 120h8M272 121h8M272 122h8M272 123h8M272 124h8M272 125h8M272 126h8M272 127h8M288 136h8M288 137h8M288 138h8M288 139h8M288 140h8M288 141h8M288 142h8M288 143h8M72 184h8M72 185h8M72 186h8M72 187h8M72 188h8M72 189h8M72 190h8M72 191h8M272 232h8M272 233h8M272 234h8M272 235h8M272 236h8M272 237h8M272 238h8M272 239h8M264 304h8M264 305h8M264 306h8M264 307h8M264 308h8M264 309h8M264 310h8M264 311h8M376 312h8M376 313h8M376 314h8M376 315h8M376 316h8M376 317h8M376 318h8M376 319h8M360 328h8M360 329h8M360 330h8M360 331h8M360 332h8M360 333h8M360 334h8M360 335h8M232 336h8M232 337h8M232 338h8M232 339h8M232 340h8M232 341h8M232 342h8M232 343h8M104 352h8M104 353h8M104 354h8M104 355h8M104 356h8M104 357h8M104 358h8M104 359h8" />
    <path stroke="rgba(0,3,3,0.36470588235294116)" d="M168 16h8M168 17h8M168 18h8M168 19h8M168 20h8M168 21h8M168 22h8M168 23h8" />
    <path stroke="rgba(1,1,1,0.7294117647058823)" d="M176 16h8M176 17h8M176 18h8M176 19h8M176 20h8M176 21h8M176 22h8M176 23h8M120 296h8M120 297h8M120 298h8M120 299h8M120 300h8M120 301h8M120 302h8M120 303h8" />
    <path stroke="rgba(1,1,1,0.9411764705882353)" d="M184 16h8M184 17h8M184 18h8M184 19h8M184 20h8M184 21h8M184 22h8M184 23h8M208 128h8M208 129h8M208 130h8M208 131h8M208 132h8M208 133h8M208 134h8M208 135h8" />
    <path stroke="#00FF00" d="M192 16h8M192 17h8M192 18h8M192 19h8M192 20h8M192 21h8M192 22h8M192 23h8M168 24h56M168 25h56M168 26h56M168 27h56M168 28h56M168 29h56M168 30h56M168 31h56M160 32h72M160 33h72M160 34h72M160 35h72M160 36h55M216 36h16M160 37h72M160 38h72M160 39h72M152 40h24M216 40h24M152 41h24M216 41h24M152 42h24M216 42h24M152 43h24M216 43h24M152 44h24M216 44h24M152 45h24M216 45h24M152 46h24M216 46h24M152 47h24M216 47h24M144 48h24M224 48h24M144 49h24M224 49h24M144 50h24M224 50h24M144 51h24M224 51h24M144 52h24M224 52h24M144 53h24M224 53h24M144 54h24M224 54h24M144 55h24M224 55h24M144 56h16M232 56h16M144 57h16M232 57h16M144 58h16M232 58h16M144 59h16M232 59h16M144 60h16M232 60h16M144 61h16M232 61h16M144 62h16M232 62h7M240 62h8M144 63h16M232 63h16M144 64h16M232 64h24M144 65h16M232 65h24M144 66h16M232 66h24M144 67h16M232 67h24M144 68h16M232 68h24M144 69h16M232 69h24M144 70h9M154 70h6M232 70h3M236 70h20M144 71h2M147 71h13M232 71h24M136 72h24M232 72h24M136 73h24M232 73h24M136 74h24M232 74h24M136 75h24M232 75h24M136 76h24M232 76h24M136 77h24M232 77h24M136 78h24M232 78h24M136 79h24M232 79h24M128 80h32M232 80h32M128 81h32M232 81h32M128 82h32M232 82h32M128 83h32M232 83h32M128 84h32M232 84h32M128 85h32M232 85h32M128 86h32M232 86h32M128 87h32M232 87h8M241 87h23M112 88h48M232 88h48M112 89h48M232 89h48M112 90h48M232 90h48M112 91h48M232 91h48M112 92h48M232 92h48M112 93h48M232 93h48M112 94h48M232 94h48M112 95h48M232 95h48M104 96h32M144 96h24M224 96h24M256 96h32M104 97h32M144 97h24M224 97h24M256 97h32M104 98h32M144 98h24M224 98h24M256 98h32M104 99h32M144 99h24M224 99h24M256 99h32M104 100h32M144 100h24M224 100h16M241 100h7M256 100h32M104 101h32M144 101h24M224 101h24M256 101h32M104 102h32M144 102h24M224 102h24M256 102h32M104 103h32M144 103h24M224 103h24M256 103h32M96 104h24M152 104h24M216 104h24M272 104h24M96 105h24M152 105h24M216 105h24M272 105h24M96 106h24M152 106h24M216 106h24M272 106h24M96 107h24M152 107h24M216 107h24M272 107h5M278 107h18M96 108h10M107 108h13M152 108h24M216 108h20M237 108h3M272 108h24M96 109h24M152 109h24M216 109h24M272 109h24M96 110h24M152 110h24M216 110h24M272 110h24M96 111h24M152 111h24M216 111h24M272 111h11M284 111h12M88 112h24M160 112h80M280 112h24M88 113h24M160 113h80M280 113h24M88 114h24M160 114h80M280 114h24M88 115h24M160 115h46M207 115h33M280 115h24M88 116h24M160 116h80M280 116h6M287 116h17M88 117h24M160 117h80M280 117h24M88 118h24M160 118h80M280 118h24M88 119h24M160 119h80M280 119h24M80 120h24M168 120h56M288 120h24M80 121h24M168 121h56M288 121h24M80 122h24M168 122h56M288 122h24M80 123h24M168 123h56M288 123h24M80 124h24M168 124h56M288 124h24M80 125h24M168 125h56M288 125h24M80 126h24M168 126h56M288 126h24M80 127h24M168 127h56M288 127h18M307 127h5M72 128h24M184 128h24M296 128h24M72 129h24M184 129h24M296 129h24M72 130h24M184 130h24M296 130h24M72 131h24M184 131h24M296 131h24M72 132h24M184 132h24M296 132h24M72 133h24M184 133h24M296 133h24M72 134h16M89 134h7M184 134h24M296 134h24M72 135h24M184 135h24M296 135h24M72 136h16M304 136h24M72 137h16M304 137h24M72 138h16M304 138h24M72 139h16M304 139h24M72 140h16M304 140h24M72 141h16M304 141h24M72 142h16M304 142h24M72 143h16M304 143h24M64 144h16M312 144h16M64 145h16M312 145h16M64 146h16M312 146h16M64 147h16M312 147h16M64 148h16M312 148h16M64 149h16M312 149h16M64 150h16M312 150h16M64 151h16M312 151h16M56 152h24M312 152h24M56 153h24M312 153h24M56 154h24M312 154h24M56 155h24M312 155h24M56 156h24M312 156h24M56 157h15M72 157h8M312 157h24M56 158h24M312 158h24M56 159h24M312 159h24M56 160h16M320 160h16M56 161h16M320 161h16M56 162h16M320 162h16M56 163h16M320 163h16M56 164h16M320 164h16M56 165h16M320 165h16M56 166h16M320 166h16M56 167h16M320 167h16M56 168h16M320 168h24M56 169h16M320 169h24M56 170h16M320 170h24M56 171h16M320 171h24M56 172h16M320 172h24M56 173h16M320 173h24M56 174h16M320 174h5M326 174h18M56 175h16M320 175h24M48 176h24M320 176h24M48 177h24M320 177h24M48 178h24M320 178h24M48 179h24M320 179h24M48 180h24M320 180h24M48 181h24M320 181h24M48 182h24M320 182h24M48 183h24M320 183h24M48 184h16M328 184h16M48 185h16M328 185h16M48 186h16M328 186h16M48 187h16M328 187h16M48 188h16M328 188h16M48 189h16M328 189h16M48 190h16M328 190h16M48 191h16M328 191h16M48 192h16M328 192h16M48 193h16M328 193h16M48 194h16M328 194h10M339 194h5M48 195h16M328 195h16M48 196h16M328 196h16M48 197h16M328 197h16M48 198h16M328 198h16M48 199h16M328 199h8M337 199h7M48 200h16M328 200h24M48 201h16M328 201h24M48 202h16M328 202h24M48 203h16M328 203h24M48 204h16M328 204h24M48 205h16M328 205h24M48 206h16M328 206h24M48 207h16M328 207h24M48 208h16M328 208h24M48 209h16M328 209h24M48 210h16M328 210h24M48 211h16M328 211h24M48 212h16M328 212h24M48 213h16M328 213h24M48 214h16M328 214h24M48 215h16M328 215h24M48 216h16M328 216h24M48 217h16M328 217h24M48 218h16M328 218h5M334 218h18M48 219h16M328 219h24M48 220h16M328 220h24M48 221h16M328 221h24M48 222h16M328 222h24M48 223h16M328 223h24M40 224h56M304 224h48M40 225h56M304 225h48M40 226h56M304 226h48M40 227h8M49 227h47M304 227h48M40 228h56M304 228h48M40 229h56M304 229h48M40 230h56M304 230h48M40 231h56M304 231h24M329 231h23M32 232h72M288 232h72M32 233h72M288 233h72M32 234h72M288 234h72M32 235h72M288 235h72M32 236h72M288 236h72M32 237h72M288 237h72M32 238h72M288 238h72M32 239h72M288 239h72M24 240h24M88 240h24M280 240h32M344 240h24M24 241h24M88 241h24M280 241h32M344 241h24M24 242h24M88 242h24M280 242h32M344 242h24M24 243h24M88 243h24M280 243h32M344 243h24M24 244h24M88 244h13M102 244h10M280 244h32M344 244h24M24 245h24M88 245h24M280 245h32M344 245h24M24 246h24M88 246h24M280 246h32M344 246h24M24 247h24M88 247h24M280 247h32M344 247h24M16 248h24M96 248h24M280 248h16M352 248h22M375 248h1M16 249h24M96 249h24M280 249h16M352 249h24M16 250h24M96 250h24M280 250h16M352 250h24M16 251h24M96 251h24M280 251h16M352 251h24M16 252h24M96 252h24M280 252h16M352 252h24M16 253h24M96 253h19M116 253h4M280 253h16M352 253h24M16 254h24M96 254h24M280 254h16M352 254h24M16 255h24M96 255h24M280 255h16M352 255h24M16 256h16M104 256h16M272 256h24M360 256h16M16 257h16M104 257h16M272 257h24M360 257h16M16 258h16M104 258h16M272 258h24M360 258h16M16 259h16M104 259h16M272 259h24M360 259h16M16 260h16M104 260h16M272 260h24M360 260h16M16 261h16M104 261h16M272 261h18M291 261h5M360 261h16M16 262h16M104 262h16M272 262h24M360 262h16M16 263h16M104 263h16M272 263h4M277 263h19M360 263h16M16 264h16M104 264h24M272 264h16M360 264h24M16 265h16M104 265h24M272 265h16M360 265h24M16 266h11M28 266h4M104 266h24M272 266h16M360 266h24M16 267h16M104 267h24M272 267h16M360 267h24M16 268h16M104 268h24M272 268h16M360 268h24M16 269h16M104 269h24M272 269h16M360 269h24M16 270h16M104 270h24M272 270h16M360 270h24M16 271h16M104 271h24M272 271h16M360 271h24M16 272h16M104 272h24M272 272h16M360 272h27M16 273h16M104 273h21M126 273h2M272 273h16M360 273h27M16 274h16M104 274h24M272 274h16M360 274h27M16 275h16M104 275h24M272 275h16M360 275h27M16 276h16M104 276h24M272 276h16M360 276h27M16 277h16M104 277h24M272 277h16M360 277h27M16 278h16M104 278h24M272 278h16M360 278h27M16 279h16M104 279h24M272 279h16M360 279h27M16 280h16M104 280h24M272 280h16M360 280h24M16 281h16M104 281h24M272 281h16M360 281h24M16 282h16M104 282h24M272 282h16M360 282h24M16 283h16M104 283h24M272 283h16M360 283h24M16 284h16M104 284h24M272 284h5M278 284h10M360 284h24M16 285h16M104 285h24M272 285h13M286 285h2M360 285h24M16 286h16M104 286h24M272 286h16M360 286h24M16 287h16M104 287h24M272 287h16M360 287h24M16 288h16M104 288h16M272 288h16M360 288h24M16 289h16M104 289h16M272 289h16M360 289h24M16 290h16M104 290h16M272 290h16M360 290h24M16 291h16M104 291h16M272 291h16M360 291h24M16 292h16M104 292h16M272 292h16M360 292h24M16 293h16M104 293h16M272 293h16M360 293h24M16 294h16M104 294h16M272 294h16M360 294h24M16 295h16M104 295h16M272 295h16M360 295h24M16 296h24M104 296h16M272 296h24M360 296h16M16 297h24M104 297h16M272 297h24M360 297h16M16 298h24M104 298h16M272 298h24M360 298h16M16 299h24M104 299h16M272 299h24M360 299h16M16 300h24M104 300h16M272 300h24M360 300h16M16 301h24M104 301h16M272 301h24M360 301h16M16 302h24M104 302h16M272 302h24M360 302h16M16 303h24M104 303h16M272 303h24M360 303h16M24 304h16M96 304h24M280 304h24M352 304h24M24 305h16M96 305h24M280 305h12M293 305h11M352 305h24M24 306h16M96 306h24M280 306h24M352 306h24M24 307h16M96 307h24M280 307h24M352 307h24M24 308h16M96 308h24M280 308h24M352 308h24M24 309h16M96 309h24M280 309h24M352 309h24M24 310h16M96 310h24M280 310h24M352 310h24M24 311h16M96 311h24M280 311h24M352 311h24M24 312h88M288 312h80M24 313h88M288 313h80M24 314h88M288 314h80M24 315h88M288 315h80M24 316h88M288 316h80M24 317h88M288 317h80M24 318h88M288 318h80M24 319h88M288 319h80M40 320h72M280 320h80M40 321h72M280 321h34M315 321h45M40 322h5M46 322h66M280 322h80M40 323h72M280 323h80M40 324h72M280 324h80M40 325h70M111 325h1M280 325h80M40 326h72M280 326h80M40 327h72M280 327h80M48 328h72M272 328h24M312 328h32M48 329h72M272 329h24M312 329h32M48 330h72M272 330h24M312 330h32M48 331h72M272 331h24M312 331h24M337 331h7M48 332h72M272 332h24M312 332h32M48 333h72M272 333h24M312 333h32M48 334h72M272 334h24M312 334h32M48 335h72M272 335h24M312 335h32M104 336h32M256 336h32M104 337h32M256 337h32M104 338h1M106 338h30M256 338h32M104 339h32M256 339h32M104 340h32M256 340h32M104 341h32M256 341h32M104 342h5M110 342h26M256 342h32M104 343h32M256 343h32M112 344h40M240 344h40M112 345h40M240 345h40M112 346h40M240 346h40M112 347h40M240 347h40M112 348h40M240 348h40M112 349h35M148 349h4M240 349h40M112 350h2M115 350h37M240 350h40M112 351h40M240 351h40M128 352h136M128 353h136M128 354h136M128 355h136M128 356h136M128 357h136M128 358h136M128 359h136M144 360h104M144 361h14M159 361h89M144 362h104M144 363h104M144 364h104M144 365h104M144 366h104M144 367h104M176 368h40M176 369h40M176 370h40M176 371h40M176 372h40M176 373h40M176 374h40M176 375h40M192 376h4M197 376h3M192 377h8" />
    <path stroke="rgba(1,1,1,0.9529411764705882)" d="M200 16h8M200 17h8M200 18h8M200 19h8M200 20h8M200 21h8M200 22h8M200 23h8" />
    <path stroke="rgba(1,1,1,0.7568627450980392)" d="M208 16h8M208 17h8M208 18h8M208 19h8M208 20h8M208 21h5M214 21h2M208 22h8M208 23h8" />
    <path stroke="rgba(2,2,2,0.4235294117647059)" d="M216 16h8M216 17h8M216 18h8M216 19h8M216 20h8M216 21h8M216 22h8M216 23h8M256 104h8M256 105h8M256 106h8M256 107h8M256 108h8M256 109h8M256 110h8M256 111h8M24 320h8M24 321h8M24 322h8M24 323h8M24 324h8M24 325h8M24 326h8M24 327h8" />
    <path stroke="rgba(0,0,0,0.03137254901960784)" d="M224 16h8M224 17h8M224 18h8M224 19h8M224 20h8M224 21h8M224 22h8M224 23h8M168 56h8M168 57h8M168 58h8M168 59h8M168 60h8M168 61h8M168 62h8M168 63h8M264 72h8M264 73h8M264 74h8M264 75h8M264 76h8M264 77h8M264 78h8M264 79h8M336 144h8M336 145h8M336 146h8M336 147h8M336 148h8M336 149h8M336 150h8M336 151h8M304 160h8M304 161h8M304 162h8M304 163h8M304 164h8M304 165h8M304 166h8M304 167h8M40 168h8M40 169h8M40 170h8M40 171h8M40 172h8M40 173h8M40 174h8M40 175h8M336 248h8M336 249h8M336 250h8M336 251h8M336 252h8M336 253h8M336 254h8M336 255h8M264 320h8M264 321h8M264 322h8M264 323h8M264 324h8M264 325h8M264 326h8M264 327h8M152 336h8M152 337h8M152 338h8M152 339h8M152 340h8M152 341h8M152 342h8M152 343h8M280 352h8M280 353h8M280 354h8M280 355h8M280 356h8M280 357h8M280 358h8M280 359h8M248 368h8M248 369h8M248 370h8M248 371h8M248 372h8M248 373h8M248 374h8M248 375h8" />
    <path stroke="rgba(0,1,1,0.7568627450980392)" d="M213 21h1" />
    <path stroke="rgba(0,0,0,0.1568627450980392)" d="M152 24h8M152 25h8M152 26h8M152 27h8M152 28h8M152 29h8M152 30h8M152 31h8M144 32h8M144 33h8M144 34h8M144 35h8M144 36h8M144 37h8M144 38h8M144 39h8M80 104h8M80 105h8M80 106h8M80 107h8M80 108h8M80 109h8M80 110h8M80 111h8M112 232h8M112 233h8M112 234h8M112 235h8M112 236h8M112 237h8M112 238h8M112 239h8" />
    <path stroke="rgba(1,1,1,0.8274509803921568)" d="M160 24h8M160 25h8M160 26h8M160 27h8M160 28h8M160 29h8M160 30h8M160 31h8M224 368h8M224 369h8M224 370h8M224 371h8M224 372h8M224 373h8M224 374h8M224 375h8" />
    <path stroke="rgba(1,1,1,0.8745098039215686)" d="M224 24h2M227 24h5M224 25h8M224 26h8M224 27h8M224 28h8M224 29h8M224 30h8M224 31h8M88 136h8M88 137h8M88 138h8M88 139h8M88 140h8M88 141h8M89 142h7M88 143h8" />
    <path stroke="rgba(1,0,1,0.8745098039215686)" d="M226 24h1M88 142h1" />
    <path stroke="rgba(5,5,5,0.21176470588235294)" d="M232 24h8M232 25h8M232 26h8M232 27h8M232 28h8M232 29h8M232 30h8M232 31h8M312 112h8M312 113h8M312 114h8M312 115h8M312 116h8M312 117h8M312 118h8M312 119h8M32 328h8M32 329h8M32 330h8M32 331h8M32 332h8M32 333h8M32 334h8M32 335h8" />
    <path stroke="rgba(1,1,1,0.9294117647058824)" d="M152 32h8M152 33h8M152 34h8M152 35h8M152 36h8M152 37h8M152 38h8M152 39h8" />
    <path stroke="rgba(0,0,0,0.9529411764705882)" d="M232 32h8M232 33h8M232 34h8M232 35h8M232 36h8M232 37h8M232 38h8M232 39h8M240 104h8M296 104h8M240 105h8M296 105h8M240 106h8M296 106h8M240 107h8M296 107h8M240 108h8M296 108h8M240 109h8M296 109h8M240 110h8M296 110h8M240 111h8M296 111h8M304 112h8M304 113h8M304 114h8M304 115h8M304 116h8M304 117h8M304 118h8M304 119h8M48 168h8M48 169h8M48 170h8M48 171h8M48 172h8M48 173h8M48 174h8M48 175h8M64 184h8M64 185h8M64 186h8M64 187h8M64 188h8M64 189h8M64 190h8M64 191h8M360 232h8M360 233h8M360 234h8M360 235h8M360 236h8M360 237h8M360 238h8M360 239h8" />
    <path stroke="rgba(4,4,4,0.23137254901960785)" d="M240 32h8M240 33h8M240 34h8M240 35h8M240 36h8M240 37h8M240 38h8M240 39h8M88 216h8M88 217h8M88 218h8M88 219h8M88 220h8M88 221h8M88 222h8M88 223h8" />
    <path stroke="#000100" d="M215 36h1M235 70h1M277 107h1M71 157h1M333 218h1M48 227h1M115 253h1M27 266h1M109 342h1" />
    <path stroke="rgba(0,0,0,0.0196078431372549)" d="M136 40h8M136 41h8M136 42h8M136 43h8M136 44h8M136 45h8M136 46h8M136 47h8M136 368h8M136 369h8M136 370h8M136 371h8M136 372h8M136 373h8M136 374h8M136 375h8" />
    <path stroke="rgba(1,1,1,0.8431372549019608)" d="M144 40h8M145 41h7M144 42h8M144 43h8M144 44h8M144 45h8M144 46h8M144 47h8M320 184h8M320 185h8M320 186h8M320 187h8M320 188h8M320 189h8M320 190h8M320 191h8M264 328h8M264 329h8M264 330h8M264 331h8M264 332h8M264 333h8M264 334h8M264 335h8M280 344h8M280 345h8M280 346h8M280 347h8M280 348h8M280 349h8M280 350h8M280 351h8" />
    <path stroke="rgba(1,1,1,0.9058823529411765)" d="M176 40h8M176 41h8M176 42h8M176 43h8M176 44h8M176 45h8M176 46h8M176 47h8M288 96h8M288 97h8M288 98h8M288 99h8M288 100h8M288 101h8M288 102h8M288 103h8M88 104h8M88 105h8M88 106h8M88 107h8M88 108h8M88 109h8M88 110h8M88 111h8M80 112h8M80 113h8M80 114h2M83 114h5M80 115h8M80 116h8M80 117h8M80 118h8M80 119h8M312 120h8M312 121h8M312 122h8M312 123h8M312 124h8M312 125h8M312 126h8M312 127h8M312 160h8M312 161h8M312 162h8M312 163h8M312 164h8M312 165h8M312 166h8M312 167h5M318 167h2" />
    <path stroke="rgba(2,2,2,0.5411764705882353)" d="M184 40h8M184 41h8M184 42h8M184 43h8M184 44h8M184 45h8M184 46h8M184 47h8" />
    <path stroke="rgba(0,0,0,0.3764705882352941)" d="M192 40h8M192 41h8M192 42h8M192 43h8M192 44h8M192 45h8M192 46h8M192 47h8M320 208h8M320 209h8M320 210h8M320 211h8M320 212h8M320 213h8M320 214h8M320 215h8M64 336h8M320 336h8M64 337h8M320 337h8M64 338h8M320 338h8M64 339h8M320 339h8M64 340h8M320 340h8M64 341h8M320 341h8M64 342h8M320 342h8M64 343h8M320 343h8" />
    <path stroke="rgba(2,2,2,0.5176470588235295)" d="M200 40h8M200 41h8M200 42h8M200 43h8M200 44h8M200 45h8M200 46h8M200 47h8M272 352h8M272 353h8M272 354h8M272 355h8M272 356h8M272 357h8M272 358h8M272 359h8" />
    <path stroke="rgba(1,1,1,0.8588235294117647)" d="M208 40h8M208 41h8M208 42h8M208 43h8M208 44h8M208 45h8M208 46h8M208 47h8M160 56h8M248 56h8M160 57h8M248 57h8M160 58h8M248 58h8M160 59h8M248 59h8M160 60h8M248 60h8M160 61h8M248 61h8M160 62h8M248 62h8M160 63h8M248 63h8M112 240h8M112 241h8M112 242h8M112 243h8M112 244h8M112 245h8M112 246h8M112 247h8" />
    <path stroke="rgba(0,0,0,0.8901960784313725)" d="M240 40h8M240 41h8M240 42h1M242 42h6M240 43h2M243 43h5M240 44h8M240 45h8M240 46h8M240 47h8M120 328h8M120 329h8M120 330h8M120 331h8M120 332h8M120 333h8M120 334h8M120 335h8" />
    <path stroke="rgba(16,16,16,0.06274509803921569)" d="M248 40h8M248 41h8M248 42h8M248 43h8M248 44h8M248 45h8M248 46h8M248 47h8" />
    <path stroke="rgba(0,1,1,0.8431372549019608)" d="M144 41h1" />
    <path stroke="rgba(0,1,0,0.8901960784313725)" d="M241 42h1" />
    <path stroke="rgba(1,0,0,0.8901960784313725)" d="M242 43h1" />
    <path stroke="rgba(2,2,2,0.41568627450980394)" d="M136 48h8M136 49h8M136 50h8M136 51h8M136 52h8M136 53h8M136 54h8M136 55h8" />
    <path stroke="rgba(1,1,1,0.6705882352941176)" d="M168 48h8M168 49h8M168 50h8M168 51h8M168 52h8M168 53h8M168 54h8M168 55h8M280 232h8M280 233h8M280 234h8M280 235h8M280 236h4M285 236h3M280 237h8M280 238h8M280 239h8M328 240h8M328 241h8M328 242h8M328 243h8M328 244h8M328 245h8M328 246h8M328 247h8" />
    <path stroke="rgba(0,0,0,0.043137254901960784)" d="M176 48h8M176 49h8M176 50h8M176 51h8M176 52h8M176 53h8M176 54h8M176 55h8" />
    <path stroke="rgba(2,2,2,0.6)" d="M216 48h8M216 49h8M216 50h8M216 51h8M216 52h8M216 53h8M216 54h8M216 55h8M216 128h8M216 129h8M216 130h8M216 131h8M216 132h8M216 133h8M216 134h8M216 135h8" />
    <path stroke="rgba(0,0,0,0.48627450980392156)" d="M248 48h8M248 49h8M248 50h8M248 51h8M248 52h8M248 53h8M248 54h8M248 55h8M160 80h8M160 81h8M160 82h8M160 83h8M160 84h8M160 85h8M160 86h8M160 87h8" />
    <path stroke="rgba(1,1,1,0.7647058823529411)" d="M136 56h8M136 57h8M136 58h7M136 59h8M136 60h8M136 61h8M136 62h8M136 63h8M96 128h8M96 129h8M96 130h8M96 131h8M96 132h8M96 133h8M96 134h8M96 135h8M56 240h8M56 241h8M56 242h8M56 243h8M56 244h8M56 245h8M56 246h8M56 247h8M288 264h8M288 265h8M288 266h8M288 267h8M288 268h8M288 269h8M288 270h8M288 271h8" />
    <path stroke="rgba(1,1,1,0.8117647058823529)" d="M224 56h8M224 57h8M224 58h8M224 59h8M224 60h8M224 61h8M224 62h8M224 63h8" />
    <path stroke="rgba(0,1,1,0.7647058823529411)" d="M143 58h1" />
    <path stroke="#010000" d="M239 62h1M146 71h1M240 100h1M106 108h1M206 115h1M286 116h1M88 134h1M101 244h1M290 261h1M285 285h1M292 305h1M314 321h1M45 322h1M110 325h1M105 338h1M114 350h1M158 361h1M196 376h1" />
    <path stroke="rgba(1,1,1,0.9764705882352941)" d="M136 64h8M136 65h8M136 66h8M136 67h8M136 68h8M136 69h8M136 70h8M136 71h8" />
    <path stroke="rgba(2,2,2,0.47843137254901963)" d="M160 64h8M160 65h8M160 66h8M160 67h8M160 68h8M160 69h8M160 70h8M160 71h8M120 248h8M120 249h8M120 250h8M120 251h8M120 252h8M120 253h8M120 254h8M120 255h8" />
    <path stroke="rgba(2,2,2,0.4196078431372549)" d="M224 64h8M224 65h8M224 66h8M224 67h8M224 68h8M224 69h8M224 70h8M224 71h8" />
    <path stroke="rgba(13,13,13,0.07450980392156863)" d="M256 64h8M256 65h8M256 66h8M256 67h8M256 68h8M256 69h8M256 70h8M256 71h8" />
    <path stroke="#000001" d="M153 70h1M240 87h1M236 108h1M283 111h1M306 127h1M325 174h1M338 194h1M336 199h1M328 231h1M374 248h1M276 263h1M125 273h1M277 284h1M336 331h1M147 349h1" />
    <path stroke="rgba(0,0,0,0.00392156862745098)" d="M120 72h8M121 73h7M120 74h8M120 75h8M120 76h8M120 77h8M120 78h8M120 79h8M208 136h8M208 137h8M208 138h8M208 139h8M208 140h8M208 141h8M208 142h8M208 143h8" />
    <path stroke="rgba(3,3,3,0.3411764705882353)" d="M128 72h8M128 73h8M128 74h8M128 75h8M128 76h8M128 77h8M128 78h8M128 79h8" />
    <path stroke="rgba(5,5,5,0.37254901960784315)" d="M160 72h8M160 73h8M160 74h8M160 75h8M160 76h8M160 77h8M160 78h8M160 79h8" />
    <path stroke="rgba(0,0,0,0.25098039215686274)" d="M224 72h8M224 73h8M224 74h8M224 75h8M224 76h8M224 77h8M224 78h8M224 79h8" />
    <path stroke="rgba(2,2,2,0.4666666666666667)" d="M256 72h8M256 73h8M256 74h8M256 75h8M256 76h8M256 77h8M256 78h8M256 79h8M320 200h8M320 201h8M320 202h8M320 203h8M320 204h8M320 205h8M320 206h8M320 207h8" />
    <path stroke="rgba(0,0,1,0.00392156862745098)" d="M120 73h1" />
    <path stroke="rgba(4,4,4,0.2627450980392157)" d="M112 80h8M112 81h8M112 82h8M112 83h8M112 84h8M112 85h8M112 86h8M112 87h8" />
    <path stroke="rgba(1,1,1,0.8156862745098039)" d="M120 80h8M120 81h7M120 82h8M120 83h8M120 84h8M120 85h8M120 86h8M120 87h8" />
    <path stroke="rgba(3,3,3,0.396078431372549)" d="M224 80h8M224 81h8M224 82h8M224 83h8M224 84h8M224 85h8M224 86h8M224 87h8" />
    <path stroke="rgba(1,1,1,0.9019607843137255)" d="M264 80h8M264 81h8M264 82h8M264 83h8M264 84h8M264 85h8M264 86h8M264 87h8M288 288h8M288 289h8M288 290h8M288 291h8M288 292h8M288 293h8M288 294h8M288 295h8" />
    <path stroke="rgba(3,3,3,0.3607843137254902)" d="M272 80h8M272 81h8M272 82h8M272 83h8M272 84h8M272 85h8M272 86h8M272 87h8M16 312h8M16 313h8M16 314h8M16 315h8M16 316h8M16 317h8M16 318h8M16 319h8" />
    <path stroke="rgba(1,0,1,0.8156862745098039)" d="M127 81h1" />
    <path stroke="rgba(0,0,0,0.047058823529411764)" d="M96 88h8M96 89h8M96 90h8M96 91h8M96 92h8M96 93h8M96 94h8M96 95h8M112 120h8M112 121h8M112 122h8M112 123h8M112 124h8M112 125h8M112 126h8M112 127h8M16 232h8M16 233h8M16 234h4M21 234h3M16 235h8M16 236h8M16 237h8M16 238h8M16 239h8M368 320h8M368 321h8M368 322h8M368 323h8M368 324h8M368 325h8M368 326h8M368 327h8" />
    <path stroke="rgba(2,2,2,0.6078431372549019)" d="M104 88h8M104 89h8M104 90h8M104 91h8M104 92h8M104 93h8M104 94h8M104 95h8M32 264h8M32 265h8M32 266h8M32 267h8M32 268h8M32 269h8M32 270h8M32 271h8M272 320h8M272 321h8M272 322h8M272 323h8M272 324h8M272 325h8M272 326h8M272 327h8" />
    <path stroke="rgba(1,1,1,0.7764705882352941)" d="M160 88h8M160 89h8M160 90h8M160 91h8M160 92h8M160 93h8M160 94h8M160 95h8M296 136h8M296 137h8M296 138h8M296 139h8M296 140h8M296 141h8M296 142h8M296 143h8" />
    <path stroke="rgba(1,1,1,0.7490196078431373)" d="M224 88h8M224 89h8M224 90h8M224 91h8M224 92h8M224 93h8M224 94h8M224 95h8M56 144h8M56 145h8M56 146h8M56 147h8M56 148h8M56 149h8M56 150h8M56 151h8M64 192h8M64 193h8M64 194h8M64 195h8M64 196h8M64 197h8M64 198h8M64 199h8M72 216h8M72 217h1M74 217h6M72 218h8M72 219h8M72 220h8M72 221h8M72 222h8M72 223h8M368 312h8M368 313h8M368 314h8M368 315h8M368 316h8M368 317h8M368 318h8M368 319h8M360 320h8M361 321h7M360 322h8M360 323h8M360 324h8M360 325h8M360 326h8M360 327h8" />
    <path stroke="rgba(1,1,1,0.7215686274509804)" d="M280 88h8M280 89h8M280 90h8M280 91h8M280 92h8M280 93h8M280 94h8M280 95h8" />
    <path stroke="rgba(0,0,0,0.09411764705882353)" d="M288 88h8M288 89h2M291 89h3M295 89h1M288 90h8M288 91h8M288 92h8M288 93h8M288 94h8M288 95h8M72 112h8M72 113h8M72 114h8M72 115h8M72 116h8M72 117h8M72 118h8M72 119h8M320 120h8M320 121h8M320 122h8M320 123h8M320 124h8M320 125h8M320 126h8M320 127h8M160 128h8M160 129h8M160 130h8M160 131h8M160 132h8M160 133h8M160 134h8M160 135h8M80 160h8M80 161h8M80 162h8M80 163h8M80 164h8M80 165h8M80 166h8M80 167h8M296 216h8M296 217h8M296 218h8M296 219h8M296 220h8M296 221h8M296 222h8M296 223h8M264 248h8M264 249h8M264 250h8M264 251h8M264 252h8M264 253h8M264 254h8M264 255h8M264 360h8M264 361h8M264 362h8M264 363h8M264 364h8M264 365h8M264 366h8M264 367h8" />
    <path stroke="rgba(0,1,0,0.09411764705882353)" d="M290 89h1" />
    <path stroke="rgba(1,0,0,0.09411764705882353)" d="M294 89h1" />
    <path stroke="rgba(8,8,8,0.11764705882352941)" d="M88 96h8M88 97h8M88 98h8M88 99h8M88 100h8M88 101h8M88 102h8M88 103h8" />
    <path stroke="rgba(1,1,1,0.8235294117647058)" d="M96 96h8M96 97h8M96 98h8M96 99h8M96 100h8M96 101h8M96 102h8M96 103h8M352 224h8M352 225h8M352 226h8M352 227h8M352 228h8M352 229h8M352 230h8M352 231h8" />
    <path stroke="rgba(0,0,0,0.984313725490196)" d="M136 96h8M136 97h8M136 98h8M136 99h8M136 100h8M136 101h8M136 102h8M136 103h8M152 112h8M152 113h8M152 114h8M152 115h8M152 116h8M152 117h8M152 118h8M152 119h8M64 136h8M64 137h8M64 138h8M64 139h8M64 140h8M64 141h8M64 142h8M64 143h8M80 144h8M80 145h8M80 146h8M80 147h8M80 148h8M80 149h8M80 150h8M80 151h8M96 296h8M96 297h8M96 298h8M96 299h8M96 300h8M96 301h8M96 302h8M96 303h8M32 320h8M32 321h8M32 322h8M32 323h8M32 324h8M32 325h8M32 326h8M32 327h8M304 328h8M304 329h8M304 330h8M304 331h8M304 332h8M304 333h8M304 334h8M304 335h8" />
    <path stroke="rgba(2,2,2,0.48627450980392156)" d="M168 96h8M168 97h8M168 98h8M168 99h8M168 100h8M168 101h8M168 102h8M168 103h8" />
    <path stroke="rgba(0,2,2,0.45098039215686275)" d="M216 96h8M216 97h8M216 98h8M216 99h8M216 100h8M216 101h8M216 102h8M216 103h8" />
    <path stroke="rgba(0,0,0,0.9686274509803922)" d="M248 96h8M248 97h8M248 98h8M248 99h8M248 100h8M248 101h8M248 102h8M248 103h8M72 160h8M72 161h8M72 162h8M72 163h8M72 164h8M72 165h8M72 166h8M72 167h8M296 224h8M296 225h8M296 226h8M296 227h8M296 228h8M296 229h8M296 230h8M296 231h8M272 248h8M272 249h8M272 250h8M272 251h8M272 252h8M272 253h8M272 254h8M272 255h8M376 256h8M376 257h8M376 258h8M376 259h8M376 260h8M376 261h8M376 262h8M376 263h8M88 304h8M88 305h8M88 306h8M88 307h8M88 308h8M88 309h8M88 310h8M88 311h8M264 352h8M264 353h8M264 354h8M264 355h8M264 356h8M264 357h8M264 358h8M264 359h8" />
    <path stroke="rgba(5,5,5,0.21568627450980393)" d="M296 96h8M296 97h8M296 98h8M296 99h8M296 100h8M296 101h8M296 102h8M296 103h8" />
    <path stroke="rgba(0,0,0,0.9803921568627451)" d="M120 104h8M120 105h8M120 106h8M120 107h8M120 108h8M120 109h8M120 110h8M120 111h8" />
    <path stroke="rgba(2,2,2,0.5137254901960784)" d="M128 104h8M128 105h8M128 106h8M128 107h8M128 108h8M128 109h8M128 110h8M128 111h8" />
    <path stroke="rgba(8,8,8,0.12549019607843137)" d="M136 104h8M136 105h8M136 106h8M136 107h8M136 108h8M136 109h8M137 110h7M136 111h8M200 136h8M200 137h8M200 138h8M200 139h8M200 140h8M200 141h8M200 142h8M200 143h8M312 176h8M312 177h8M312 178h8M312 179h8M312 180h8M312 181h8M312 182h8M312 183h8" />
    <path stroke="rgba(1,1,1,0.9215686274509803)" d="M144 104h8M144 105h8M144 106h8M144 107h8M144 108h8M144 109h8M144 110h8M144 111h8M352 296h8M352 297h8M352 298h8M352 299h8M352 300h8M352 301h8M352 302h8M352 303h8M232 344h8M232 345h8M232 346h8M232 347h8M232 348h8M232 349h8M232 350h8M232 351h8" />
    <path stroke="rgba(1,1,1,0.7098039215686275)" d="M176 104h8M176 105h8M176 106h8M176 107h8M176 108h8M176 109h8M176 110h8M176 111h8M88 248h8M88 249h8M88 250h8M88 251h8M88 252h8M88 253h8M88 254h8M88 255h8" />
    <path stroke="rgba(3,3,3,0.3254901960784314)" d="M184 104h8M184 105h8M184 106h8M184 107h8M184 108h8M184 109h8M184 110h8M184 111h8M56 336h8M56 337h8M56 338h8M56 339h8M56 340h8M56 341h8M56 342h8M56 343h8" />
    <path stroke="rgba(9,9,13,0.23137254901960785)" d="M192 104h8M192 105h8M192 106h8M192 107h8M192 108h1M194 108h6M192 109h8M192 110h8M192 111h8" />
    <path stroke="rgba(3,3,3,0.3215686274509804)" d="M200 104h8M200 105h8M200 106h8M200 107h8M200 108h8M200 109h8M200 110h8M200 111h8" />
    <path stroke="rgba(1,1,1,0.7019607843137254)" d="M208 104h8M208 105h8M208 106h8M208 107h8M208 108h8M208 109h1M210 109h6M208 110h8M208 111h8M40 192h8M40 193h8M40 194h8M40 195h8M40 196h8M40 197h8M40 198h8M40 199h8M112 320h8M112 321h8M112 322h8M112 323h8M112 324h8M112 325h8M112 326h8M112 327h8" />
    <path stroke="rgba(7,7,7,0.13725490196078433)" d="M248 104h8M248 105h8M248 106h8M248 107h8M248 108h8M248 109h8M248 110h8M248 111h8" />
    <path stroke="rgba(0,0,0,0.9372549019607843)" d="M264 104h8M264 105h8M264 106h8M264 107h8M264 108h8M264 109h8M264 110h8M264 111h8M160 120h8M160 121h8M160 122h8M160 123h8M160 124h8M160 125h8M160 126h8M160 127h8M368 240h8M368 241h8M368 242h8M368 243h8M368 244h8M368 245h8M368 246h8M368 247h8M16 304h8M16 305h8M16 306h8M16 307h8M16 308h8M16 309h8M16 310h8M16 311h8M120 352h8M120 353h8M120 354h8M120 355h8M120 356h8M120 357h8M120 358h8M120 359h8" />
    <path stroke="rgba(0,0,0,0.23529411764705882)" d="M304 104h8M304 105h8M304 106h8M304 107h8M304 108h8M304 109h8M304 110h8M304 111h8M88 296h8M88 297h8M88 298h8M88 299h8M88 300h8M88 301h8M88 302h8M88 303h8M88 336h8M88 337h8M88 338h8M88 339h8M88 340h8M88 341h8M88 342h8M88 343h8" />
    <path stroke="rgba(9,9,12,0.23137254901960785)" d="M193 108h1" />
    <path stroke="rgba(1,1,0,0.7019607843137254)" d="M209 109h1" />
    <path stroke="rgba(9,8,8,0.12549019607843137)" d="M136 110h1" />
    <path stroke="rgba(1,1,1,0.8470588235294118)" d="M112 112h8M112 113h8M112 114h8M112 115h8M112 116h8M112 117h8M112 118h8M112 119h8M96 256h8M96 257h8M96 258h8M96 259h8M96 260h8M96 261h8M96 262h8M96 263h8" />
    <path stroke="rgba(5,5,5,0.1843137254901961)" d="M120 112h8M120 113h8M120 114h8M120 115h8M120 116h8M120 117h8M120 118h8M120 119h8M184 344h8M184 345h8M184 346h8M184 347h8M184 348h8M184 349h8M184 350h8M184 351h8" />
    <path stroke="rgba(4,4,4,0.2823529411764706)" d="M144 112h8M144 113h8M144 114h8M144 115h8M144 116h8M144 117h8M144 118h8M144 119h8M40 176h8M40 177h8M40 178h8M40 179h8M40 180h8M40 181h8M40 182h8M40 183h8" />
    <path stroke="rgba(3,3,3,0.3686274509803922)" d="M240 112h8M240 113h8M240 114h8M240 115h8M240 116h8M240 117h8M240 118h8M240 119h8" />
    <path stroke="rgba(0,0,0,0.10980392156862745)" d="M264 112h8M264 113h8M264 114h8M264 115h8M264 116h8M264 117h8M264 118h8M264 119h8" />
    <path stroke="rgba(1,1,1,0.7607843137254902)" d="M272 112h8M272 113h8M272 114h8M272 115h8M272 116h8M272 117h8M272 118h8M272 119h8" />
    <path stroke="rgba(1,1,0,0.9058823529411765)" d="M82 114h1M317 167h1" />
    <path stroke="rgba(0,0,0,0.023529411764705882)" d="M64 120h8M64 121h8M64 122h8M64 123h8M64 124h8M64 125h8M64 126h8M64 127h8M296 288h8M296 289h8M296 290h8M296 291h8M296 292h8M296 293h8M296 294h8M296 295h8" />
    <path stroke="rgba(1,1,1,0.796078431372549)" d="M72 120h8M72 121h8M72 122h8M72 123h8M72 124h8M72 125h8M72 126h8M72 127h8" />
    <path stroke="rgba(1,1,3,0.7647058823529411)" d="M104 120h8M104 121h8M104 122h8M104 123h8M104 124h8M104 125h8M104 126h8M104 127h8" />
    <path stroke="rgba(3,3,3,0.30196078431372547)" d="M152 120h8M152 121h8M152 122h8M152 123h8M152 124h8M152 125h8M152 126h8M153 127h6M312 336h8M312 337h8M312 338h8M312 339h8M312 340h8M312 341h8M312 342h8M312 343h8" />
    <path stroke="rgba(0,0,0,0.9647058823529412)" d="M224 120h8M224 121h8M224 122h8M224 123h8M224 124h8M224 125h8M224 126h8M224 127h8" />
    <path stroke="rgba(3,3,3,0.3803921568627451)" d="M232 120h8M232 121h8M232 122h8M232 123h8M232 124h8M232 125h8M232 126h8M232 127h2M235 127h5" />
    <path stroke="rgba(2,2,3,0.6509803921568628)" d="M280 120h8M280 121h8M280 122h8M280 123h8M280 124h8M280 125h8M280 126h8M280 127h8" />
    <path stroke="rgba(3,2,3,0.30196078431372547)" d="M152 127h1" />
    <path stroke="rgba(3,3,2,0.30196078431372547)" d="M159 127h1" />
    <path stroke="rgba(3,2,3,0.3803921568627451)" d="M234 127h1" />
    <path stroke="rgba(2,2,2,0.5450980392156862)" d="M64 128h8M64 129h8M64 130h8M64 131h8M64 132h8M65 133h7M64 134h8M64 135h8" />
    <path stroke="rgba(21,21,21,0.047058823529411764)" d="M104 128h8M104 129h8M104 130h8M104 131h8M104 132h8M104 133h8M104 134h8M104 135h8M24 224h8M24 225h8M24 226h8M24 227h8M24 228h8M24 229h8M24 230h8M24 231h8" />
    <path stroke="rgba(2,2,2,0.5607843137254902)" d="M168 128h8M168 129h8M168 130h8M168 131h8M168 132h8M168 133h8M168 134h8M168 135h8" />
    <path stroke="rgba(1,1,1,0.9176470588235294)" d="M176 128h8M176 129h8M176 130h8M176 131h8M176 132h8M176 133h8M176 134h8M176 135h8" />
    <path stroke="rgba(8,8,8,0.12941176470588237)" d="M224 128h8M224 129h8M224 130h5M230 130h2M224 131h8M224 132h8M224 133h8M224 134h8M224 135h8" />
    <path stroke="rgba(0,0,0,0.00784313725490196)" d="M280 128h8M280 129h8M280 130h8M280 131h8M280 132h8M280 133h8M280 134h8M280 135h8M384 296h3M384 297h3M384 298h3M384 299h3M384 300h3M384 301h3M384 302h3M384 303h3" />
    <path stroke="rgba(2,2,2,0.6588235294117647)" d="M288 128h8M288 129h8M288 130h8M288 131h8M288 132h8M288 133h8M288 134h8M288 135h8" />
    <path stroke="rgba(1,1,1,0.7058823529411765)" d="M320 128h8M320 129h8M320 130h8M320 131h8M320 132h8M320 133h8M320 134h8M320 135h8M264 264h8M264 265h8M264 266h8M264 267h8M264 268h8M264 269h8M264 270h8M264 271h8" />
    <path stroke="rgba(8,8,9,0.12941176470588237)" d="M229 130h1" />
    <path stroke="rgba(2,3,2,0.5450980392156862)" d="M64 133h1" />
    <path stroke="rgba(5,5,5,0.19607843137254902)" d="M56 136h8M56 137h8M56 138h8M56 139h8M56 140h8M56 141h8M56 142h8M56 143h8M360 224h8M360 225h8M360 226h8M360 227h8M360 228h8M360 229h8M360 230h8M360 231h8" />
    <path stroke="rgba(0,0,0,0.06666666666666667)" d="M96 136h8M96 137h8M96 138h8M96 139h8M96 140h8M96 141h8M96 142h8M96 143h8M304 336h8M304 337h8M304 338h8M304 339h8M304 340h8M304 341h8M304 342h8M304 343h8M120 360h8M120 361h8M120 362h8M120 363h8M120 364h8M120 365h8M120 366h8M120 367h8" />
    <path stroke="rgba(9,9,9,0.11372549019607843)" d="M184 136h8M184 137h8M184 138h8M184 139h8M184 140h8M184 141h8M184 142h8M184 143h8M72 304h8M72 305h8M72 306h8M72 307h8M72 308h8M72 309h8M72 310h8M72 311h8" />
    <path stroke="rgba(9,13,13,0.23137254901960785)" d="M192 136h8M192 137h8M192 138h8M192 139h8M192 140h8M192 141h8M192 142h8M192 143h8" />
    <path stroke="rgba(3,3,3,0.3568627450980392)" d="M328 136h8M328 137h8M328 138h8M328 139h8M328 140h8M328 141h8M328 142h8M328 143h8" />
    <path stroke="rgba(0,0,5,0.2196078431372549)" d="M88 144h8M88 145h8M88 146h8M88 147h8M88 148h8M88 149h8M88 150h8M88 151h8" />
    <path stroke="rgba(0,0,0,0.12156862745098039)" d="M296 144h8M296 145h8M296 146h8M296 147h8M296 148h8M296 149h8M296 150h8M296 151h8" />
    <path stroke="rgba(0,0,0,0.9490196078431372)" d="M304 144h8M304 145h8M304 146h8M304 147h8M304 148h8M304 149h8M304 150h8M304 151h8" />
    <path stroke="rgba(1,1,1,0.8823529411764706)" d="M328 144h8M328 145h8M328 146h8M328 147h8M328 148h8M328 149h8M328 150h8M328 151h8" />
    <path stroke="rgba(5,5,5,0.2196078431372549)" d="M48 152h8M48 153h8M48 154h8M48 155h8M48 156h8M48 157h8M48 158h8M48 159h8M272 312h8M272 313h8M272 314h8M272 315h8M272 316h8M272 317h8M272 318h8M272 319h8" />
    <path stroke="rgba(2,2,2,0.596078431372549)" d="M80 152h8M80 153h8M80 154h8M80 155h8M80 156h8M80 157h8M80 158h8M80 159h8M232 368h8M232 369h8M232 370h8M232 371h8M232 372h8M232 373h8M232 374h8M232 375h8" />
    <path stroke="rgba(2,2,2,0.4588235294117647)" d="M304 152h8M304 153h8M304 154h8M304 155h8M304 156h8M304 157h8M304 158h8M304 159h8M344 176h8M344 177h8M344 178h8M344 179h8M344 180h8M344 181h8M344 182h8M344 183h8" />
    <path stroke="rgba(3,3,3,0.38823529411764707)" d="M336 152h8M336 153h8M336 154h8M336 155h8M336 156h8M336 157h8M336 158h8M336 159h8" />
    <path stroke="rgba(2,2,2,0.6352941176470588)" d="M48 160h8M48 161h8M48 162h8M48 163h8M48 164h8M48 165h8M48 166h8M48 167h8M8 256h8M8 257h8M8 258h8M8 259h8M8 260h8M8 261h8M8 262h8M8 263h8M288 280h8M288 281h8M288 282h8M288 283h8M288 284h8M288 285h8M288 286h8M288 287h8" />
    <path stroke="rgba(1,1,1,0.803921568627451)" d="M336 160h8M336 161h8M336 162h8M336 163h8M336 164h8M336 165h8M336 166h8M336 167h8" />
    <path stroke="rgba(2,2,2,0.6274509803921569)" d="M72 168h8M72 169h8M72 170h8M72 171h8M72 172h8M72 173h8M72 174h8M72 175h8M264 288h8M264 289h8M264 290h8M264 291h8M264 292h8M264 293h8M264 294h8M264 295h8" />
    <path stroke="rgba(2,2,2,0.49019607843137253)" d="M312 168h8M312 169h8M312 170h8M312 171h8M312 172h8M312 173h8M312 174h8M312 175h8" />
    <path stroke="rgba(7,7,7,0.14901960784313725)" d="M344 168h8M344 169h8M344 170h8M344 171h8M344 172h8M344 173h8M344 174h8M344 175h8" />
    <path stroke="rgba(4,4,4,0.26666666666666666)" d="M72 176h8M72 177h8M72 178h8M72 179h8M72 180h8M72 181h8M72 182h8M72 183h8" />
    <path stroke="rgba(2,2,2,0.5215686274509804)" d="M40 184h8M40 185h8M40 186h8M40 187h8M40 188h8M40 189h8M40 190h8M40 191h8" />
    <path stroke="rgba(1,1,1,0.6901960784313725)" d="M344 184h8M344 185h8M344 186h8M344 187h8M344 188h8M344 189h8M344 190h8M344 191h8" />
    <path stroke="rgba(2,2,2,0.6235294117647059)" d="M320 192h8M320 193h8M320 194h8M320 195h8M320 196h8M320 197h8M320 198h8M320 199h8M64 240h8M320 240h8M64 241h8M320 241h8M64 242h8M320 242h8M64 243h8M320 243h8M64 244h8M320 244h8M64 245h8M320 245h8M64 246h8M320 246h8M64 247h8M320 247h8M376 248h8M376 249h8M376 250h8M376 251h8M376 252h8M376 253h8M376 254h8M376 255h8" />
    <path stroke="rgba(1,1,1,0.8705882352941177)" d="M344 192h8M344 193h8M344 194h8M344 195h8M344 196h8M344 197h8M344 198h8M344 199h8M120 256h8M120 257h8M120 258h8M120 259h8M120 260h8M120 261h8M120 262h8M120 263h8" />
    <path stroke="rgba(1,1,1,0.8392156862745098)" d="M40 200h8M40 201h8M40 202h8M40 203h8M40 204h8M40 205h8M40 206h8M40 207h8" />
    <path stroke="rgba(2,2,2,0.5882352941176471)" d="M64 200h8M64 201h8M64 202h8M64 203h8M64 204h8M64 205h8M64 206h8M64 207h8" />
    <path stroke="rgba(0,0,0,0.8823529411764706)" d="M40 208h8M40 209h8M40 210h8M40 211h8M40 212h8M40 213h8M40 214h8M40 215h8" />
    <path stroke="rgba(0,2,2,0.5019607843137255)" d="M64 208h8M64 209h8M64 210h8M64 211h8M64 212h8M64 213h8M64 214h8M64 215h8" />
    <path stroke="rgba(9,18,18,0.10980392156862745)" d="M352 208h8M352 209h8M352 210h8M352 211h8M352 212h8M352 213h8M352 214h8M352 215h8" />
    <path stroke="rgba(2,2,3,0.9529411764705882)" d="M40 216h8M40 217h8M40 218h8M40 219h8M40 220h8M40 221h8M40 222h8M40 223h8" />
    <path stroke="rgba(1,1,1,0.8901960784313725)" d="M64 216h8M64 217h8M64 218h8M64 219h8M64 220h8M64 221h8M64 222h8M64 223h8M376 296h8M376 297h8M376 298h8M376 299h8M376 300h8M376 301h8M376 302h8M376 303h8" />
    <path stroke="rgba(2,2,2,0.5647058823529412)" d="M80 216h8M80 217h8M80 218h8M80 219h8M80 220h8M80 221h8M80 222h8M80 223h8" />
    <path stroke="rgba(2,2,2,0.4470588235294118)" d="M304 216h8M304 217h8M304 218h8M304 219h8M304 220h8M304 221h8M304 222h8M304 223h8" />
    <path stroke="rgba(1,1,1,0.6941176470588235)" d="M312 216h8M312 217h8M312 218h8M312 219h8M312 220h8M312 221h8M312 222h8M312 223h8" />
    <path stroke="rgba(0,0,0,0.8431372549019608)" d="M320 216h8M320 217h8M320 218h8M320 219h8M320 220h8M320 221h8M320 222h8M320 223h8M40 248h8M40 249h8M40 250h8M40 251h8M40 252h8M40 253h8M40 254h8M40 255h8" />
    <path stroke="rgba(0,0,0,0.12549019607843137)" d="M352 216h8M352 217h8M352 218h8M352 219h8M352 220h8M352 221h8M352 222h8M352 223h8M96 344h8M192 344h8M96 345h8M192 345h8M96 346h8M192 346h8M96 347h8M192 347h8M96 348h8M192 348h8M96 349h8M192 349h8M96 350h8M192 350h8M96 351h8M192 351h8" />
    <path stroke="rgba(1,1,0,0.7490196078431373)" d="M73 217h1M360 321h1" />
    <path stroke="rgba(2,2,2,0.5803921568627451)" d="M32 224h8M32 225h8M32 226h8M32 227h8M32 228h8M32 229h8M32 230h8M32 231h8" />
    <path stroke="rgba(1,1,1,0.7333333333333333)" d="M96 224h8M96 225h8M96 226h8M96 227h8M96 228h8M96 229h8M96 230h8M96 231h8M40 328h8M40 329h8M40 330h8M40 331h8M40 332h8M40 333h8M40 334h8M40 335h8" />
    <path stroke="rgba(0,8,8,0.12156862745098039)" d="M104 224h8M104 225h8M104 226h8M104 227h8M104 228h8M104 229h8M104 230h8M104 231h8" />
    <path stroke="rgba(0,0,0,0.011764705882352941)" d="M280 224h8M280 225h8M280 226h8M280 227h8M280 228h8M280 229h8M280 230h8M280 231h8M344 336h8M344 337h8M344 338h8M344 339h8M344 340h8M344 341h8M344 342h8M344 343h8" />
    <path stroke="rgba(2,2,2,0.4823529411764706)" d="M288 224h8M288 225h8M288 226h8M288 227h8M288 228h8M288 229h8M288 230h8M288 231h8" />
    <path stroke="rgba(0,0,0,0.7647058823529411)" d="M24 232h8M24 233h8M24 234h8M24 235h8M24 236h8M24 237h8M24 238h8M24 239h8" />
    <path stroke="rgba(0,0,0,0.9058823529411765)" d="M104 232h8M104 233h8M104 234h8M104 235h8M104 236h8M104 237h8M104 238h8M104 239h8" />
    <path stroke="rgba(0,0,0,0.24705882352941178)" d="M368 232h8M368 233h8M368 234h8M368 235h8M368 236h8M368 237h8M368 238h8M368 239h8" />
    <path stroke="rgba(0,0,1,0.047058823529411764)" d="M20 234h1" />
    <path stroke="rgba(1,1,0,0.6705882352941176)" d="M284 236h1" />
    <path stroke="rgba(2,2,2,0.6509803921568628)" d="M16 240h8M16 241h8M16 242h8M16 243h8M16 244h8M16 245h8M16 246h8M16 247h8" />
    <path stroke="rgba(0,0,0,0.9921568627450981)" d="M48 240h8M48 241h8M48 242h8M48 243h8M48 244h8M48 245h8M48 246h8M48 247h8" />
    <path stroke="rgba(1,1,1,0.6862745098039216)" d="M72 240h8M72 241h8M72 242h8M72 243h8M72 244h8M72 245h8M72 246h8M72 247h8" />
    <path stroke="rgba(0,1,1,0.9647058823529412)" d="M80 240h8M80 241h8M80 242h8M80 243h8M80 244h8M80 245h8M80 246h8M80 247h8" />
    <path stroke="rgba(0,0,0,0.03529411764705882)" d="M120 240h8M120 241h8M120 242h8M120 243h8M120 244h8M120 245h8M120 246h8M120 247h8" />
    <path stroke="rgba(0,0,2,0.48627450980392156)" d="M272 240h8M272 241h8M272 242h8M272 243h8M272 244h8M272 245h8M272 246h8M272 247h8" />
    <path stroke="rgba(1,1,1,0.807843137254902)" d="M312 240h8M312 241h8M312 242h8M312 243h8M312 244h8M312 245h8M312 246h8M312 247h8" />
    <path stroke="rgba(0,0,0,0.9215686274509803)" d="M336 240h8M336 241h8M336 242h8M336 243h8M336 244h8M336 245h8M336 246h8M336 247h8" />
    <path stroke="rgba(0,8,8,0.11764705882352941)" d="M376 240h8M376 241h8M376 242h8M376 243h8M376 244h8M376 245h8M376 246h8M376 247h5M382 247h2" />
    <path stroke="rgba(0,8,9,0.11764705882352941)" d="M381 247h1" />
    <path stroke="rgba(4,4,4,0.23529411764705882)" d="M8 248h8M8 249h8M8 250h8M8 251h8M8 252h8M8 253h8M8 254h8M8 255h8" />
    <path stroke="rgba(6,6,6,0.16862745098039217)" d="M48 248h8M48 249h8M48 250h8M48 251h8M48 252h8M48 253h8M48 254h8M48 255h8" />
    <path stroke="rgba(0,0,12,0.08235294117647059)" d="M80 248h8M80 249h8M80 250h8M80 251h8M80 252h8M80 253h8M80 254h8M80 255h8" />
    <path stroke="rgba(0,0,0,0.9098039215686274)" d="M296 248h8M296 249h8M296 250h8M296 251h8M296 252h8M296 253h8M296 254h8M296 255h8" />
    <path stroke="rgba(4,4,4,0.2784313725490196)" d="M304 248h8M304 249h8M304 250h8M304 251h8M304 252h8M304 253h8M304 254h8M304 255h8M144 368h8M144 369h8M144 370h8M144 371h8M144 372h8M144 373h8M144 374h8M144 375h8" />
    <path stroke="rgba(2,2,2,0.592156862745098)" d="M344 248h8M344 249h8M344 250h8M344 251h8M344 252h8M344 253h8M344 254h8M344 255h8M152 368h8M152 369h8M152 370h8M152 371h8M152 372h8M152 373h8M152 374h8M152 375h8" />
    <path stroke="rgba(1,1,1,0.9568627450980393)" d="M32 256h8M32 257h8M32 258h8M32 259h8M32 260h8M32 261h8M32 262h8M32 263h8" />
    <path stroke="rgba(0,0,0,0.11764705882352941)" d="M40 256h8M40 257h6M47 257h1M40 258h8M40 259h8M40 260h8M40 261h8M40 262h8M40 263h8" />
    <path stroke="rgba(0,26,26,0.0392156862745098)" d="M88 256h8M88 257h8M88 258h8M88 259h8M88 260h8M88 261h8M88 262h8M88 263h8" />
    <path stroke="rgba(2,2,2,0.4745098039215686)" d="M264 256h8M264 257h8M264 258h8M264 259h8M264 260h8M264 261h8M264 262h8M264 263h8" />
    <path stroke="rgba(4,4,4,0.2549019607843137)" d="M296 256h8M296 257h8M296 258h8M296 259h8M296 260h6M303 260h1M296 261h8M296 262h8M296 263h8M256 328h8M256 329h8M256 330h8M256 331h8M256 332h8M256 333h8M256 334h8M256 335h8" />
    <path stroke="rgba(1,1,1,0.7137254901960784)" d="M352 256h8M352 257h8M352 258h8M352 259h8M352 260h8M352 261h8M352 262h8M352 263h8" />
    <path stroke="rgba(8,8,8,0.13333333333333333)" d="M384 256h3M384 257h3M384 258h3M384 259h3M384 260h3M384 261h3M384 262h3M384 263h3" />
    <path stroke="rgba(1,0,0,0.11764705882352941)" d="M46 257h1" />
    <path stroke="rgba(4,4,5,0.2549019607843137)" d="M302 260h1" />
    <path stroke="rgba(1,1,1,0.8627450980392157)" d="M8 264h8M8 265h8M8 266h8M8 267h8M8 268h8M8 269h8M8 270h8M8 271h8" />
    <path stroke="rgba(2,2,2,0.4117647058823529)" d="M96 264h8M96 265h8M96 266h8M96 267h8M96 268h8M96 269h8M96 270h8M96 271h8" />
    <path stroke="rgba(10,10,10,0.10196078431372549)" d="M128 264h8M128 265h8M128 266h1M130 266h6M128 267h8M128 268h8M128 269h8M128 270h8M128 271h8" />
    <path stroke="rgba(0,0,4,0.23529411764705882)" d="M352 264h8M352 265h8M352 266h8M352 267h8M352 268h8M352 269h8M352 270h8M352 271h8" />
    <path stroke="rgba(4,4,4,0.7607843137254902)" d="M384 264h3M384 265h3M384 266h3M384 267h3M384 268h3M384 269h3M384 270h3M384 271h3" />
    <path stroke="rgba(11,10,10,0.10196078431372549)" d="M129 266h1" />
    <path stroke="#010101" d="M8 272h8M8 273h8M8 274h8M8 275h8M8 276h8M8 277h8M8 278h8M8 279h8" />
    <path stroke="rgba(0,0,0,0.39215686274509803)" d="M32 272h8M32 273h8M32 274h8M32 275h8M32 276h8M32 277h8M32 278h8M32 279h8" />
    <path stroke="rgba(4,4,4,0.25098039215686274)" d="M96 272h8M96 273h8M96 274h8M96 275h8M96 276h8M96 277h8M96 278h8M96 279h8" />
    <path stroke="rgba(4,4,4,0.24705882352941178)" d="M128 272h8M128 273h8M128 274h8M128 275h8M128 276h5M134 276h2M128 277h8M128 278h8M128 279h8" />
    <path stroke="rgba(2,2,2,0.8352941176470589)" d="M264 272h8M264 273h8M264 274h8M264 275h8M264 276h8M264 277h8M264 278h8M264 279h8" />
    <path stroke="rgba(2,2,2,0.5725490196078431)" d="M288 272h8M288 273h8M288 274h8M288 275h8M288 276h8M288 277h8M288 278h8M288 279h8" />
    <path stroke="rgba(28,28,28,0.03529411764705882)" d="M352 272h8M352 273h8M352 274h8M352 275h8M352 276h8M352 277h8M352 278h8M352 279h8" />
    <path stroke="rgba(5,4,4,0.24705882352941178)" d="M133 276h1" />
    <path stroke="rgba(1,1,1,0.9607843137254902)" d="M8 280h8M8 281h8M8 282h8M8 283h8M8 284h8M8 285h8M8 286h8M8 287h8" />
    <path stroke="rgba(0,0,0,0.43529411764705883)" d="M32 280h8M32 281h8M32 282h8M32 283h8M32 284h8M32 285h8M32 286h8M32 287h8" />
    <path stroke="rgba(3,3,3,0.28627450980392155)" d="M96 280h8M96 281h8M96 282h8M96 283h8M96 284h8M96 285h8M96 286h8M96 287h8M176 344h8M176 345h8M176 346h8M176 347h8M176 348h8M176 349h8M176 350h8M176 351h8" />
    <path stroke="rgba(5,5,5,0.20392156862745098)" d="M128 280h8M128 281h8M128 282h8M128 283h8M128 284h8M128 285h8M128 286h8M128 287h8M312 304h8M312 305h8M312 306h8M312 307h8M312 308h8M312 309h8M312 310h8M312 311h8" />
    <path stroke="rgba(1,1,1,0.7803921568627451)" d="M264 280h8M264 281h8M264 282h8M264 283h8M264 284h8M264 285h8M264 286h8M264 287h8" />
    <path stroke="rgba(9,9,9,0.10980392156862745)" d="M352 280h8M352 281h8M352 282h8M352 283h8M352 284h8M352 285h8M352 286h8M352 287h8" />
    <path stroke="rgba(2,2,2,0.9607843137254902)" d="M384 280h3M384 281h3M384 282h3M384 283h3M384 284h3M384 285h3M384 286h3M384 287h3" />
    <path stroke="rgba(1,1,1,0.788235294117647)" d="M8 288h8M8 289h8M8 290h8M8 291h8M8 292h8M8 293h8M8 294h8M8 295h8" />
    <path stroke="rgba(1,3,3,0.7647058823529411)" d="M32 288h8M32 289h8M32 290h8M32 291h8M32 292h8M32 293h8M32 294h8M32 295h8" />
    <path stroke="rgba(2,2,2,0.5764705882352941)" d="M96 288h8M96 289h8M96 290h8M96 291h8M96 292h8M96 293h8M96 294h8M96 295h8M48 304h8M48 305h8M48 306h8M48 307h8M48 308h8M48 309h8M48 310h8M48 311h8" />
    <path stroke="rgba(0,0,0,0.9882352941176471)" d="M120 288h8M120 289h8M120 290h8M120 291h8M120 292h8M120 293h8M120 294h8M120 295h8M40 304h8M40 305h8M40 306h8M40 307h8M40 308h8M40 309h8M40 310h8M40 311h8M296 328h8M296 329h8M296 330h8M296 331h8M296 332h8M296 333h8M296 334h8M296 335h8" />
    <path stroke="rgba(0,0,0,0.050980392156862744)" d="M128 288h8M128 289h8M128 290h8M128 291h8M128 292h8M128 293h8M128 294h8M128 295h8" />
    <path stroke="rgba(0,0,2,0.403921568627451)" d="M352 288h8M352 289h8M352 290h8M352 291h8M352 292h8M352 293h8M352 294h8M352 295h8" />
    <path stroke="rgba(4,4,4,0.5137254901960784)" d="M384 288h3M384 289h3M384 290h3M384 291h3M384 292h3M384 293h3M384 294h3M384 295h3" />
    <path stroke="rgba(0,0,2,0.4823529411764706)" d="M8 296h8M8 297h8M8 298h8M8 299h8M8 300h8M8 301h8M8 302h8M8 303h8" />
    <path stroke="rgba(0,0,3,0.36470588235294116)" d="M40 296h8M40 297h8M40 298h8M40 299h8M40 300h8M40 301h8M40 302h8M40 303h8" />
    <path stroke="rgba(3,3,3,0.32941176470588235)" d="M264 296h8M264 297h8M264 298h8M264 299h8M264 300h8M264 301h8M264 302h8M264 303h8M296 336h8M296 337h8M296 338h8M296 339h8M296 340h8M296 341h8M296 342h8M296 343h8" />
    <path stroke="rgba(3,3,3,0.5764705882352941)" d="M296 296h8M296 297h8M296 298h8M296 299h8M296 300h8M296 301h5M302 301h2M296 302h8M296 303h8" />
    <path stroke="rgba(7,7,7,0.1411764705882353)" d="M344 296h8M344 297h8M344 298h8M344 299h8M344 300h8M344 301h8M344 302h8M344 303h8M56 304h8M56 305h8M56 306h8M56 307h8M56 308h8M56 309h8M56 310h8M56 311h8" />
    <path stroke="rgba(3,3,2,0.5764705882352941)" d="M301 301h1" />
    <path stroke="rgba(12,12,12,0.08627450980392157)" d="M8 304h8M8 305h8M8 306h8M8 307h8M8 308h8M8 309h8M8 310h8M8 311h8" />
    <path stroke="rgba(2,2,2,0.5058823529411764)" d="M80 304h8M80 305h8M80 306h8M80 307h8M80 308h8M80 309h8M80 310h8M80 311h8" />
    <path stroke="rgba(4,4,4,0.27058823529411763)" d="M120 304h8M120 305h8M120 306h8M120 307h8M120 308h8M120 309h8M120 310h8M120 311h8M208 344h8M208 345h8M208 346h8M208 347h8M208 348h8M208 349h8M208 350h8M208 351h8" />
    <path stroke="rgba(1,1,1,0.8549019607843137)" d="M272 304h8M272 305h8M272 306h8M272 307h8M272 308h8M272 309h8M272 310h8M272 311h8" />
    <path stroke="rgba(1,1,1,0.7372549019607844)" d="M304 304h8M304 305h8M304 306h8M304 307h8M304 308h8M304 309h8M304 310h8M304 311h8" />
    <path stroke="rgba(15,15,15,0.06666666666666667)" d="M328 304h8M328 305h8M328 306h8M328 307h8M328 308h8M328 309h8M328 310h8M328 311h8" />
    <path stroke="rgba(3,3,3,0.39215686274509803)" d="M336 304h8M336 305h8M336 306h8M336 307h8M336 308h8M336 309h8M336 310h8M336 311h8" />
    <path stroke="rgba(1,1,1,0.9137254901960784)" d="M344 304h8M344 305h8M344 306h8M344 307h8M344 308h8M344 309h8M344 310h8M344 311h8" />
    <path stroke="rgba(0,0,0,0.4235294117647059)" d="M376 304h8M376 305h8M376 306h8M376 307h8M376 308h8M376 309h8M376 310h8M376 311h8" />
    <path stroke="rgba(2,2,2,0.615686274509804)" d="M112 312h8M112 313h8M112 314h8M112 315h8M112 316h8M112 317h8M112 318h8M112 319h8" />
    <path stroke="rgba(1,1,1,0.9921568627450981)" d="M280 312h8M280 313h8M280 314h8M280 315h8M280 316h8M280 317h8M280 318h8M280 319h8" />
    <path stroke="rgba(0,0,0,0.06274509803921569)" d="M120 320h8M120 321h8M120 322h8M120 323h8M120 324h8M120 325h8M120 326h8M120 327h8" />
    <path stroke="rgba(3,3,3,0.3333333333333333)" d="M128 328h8M128 329h8M128 330h8M128 331h8M128 332h8M128 333h8M128 334h8M128 335h8M144 336h8M144 337h8M144 338h8M144 339h8M144 340h8M144 341h8M144 342h8M144 343h8" />
    <path stroke="rgba(1,1,1,0.8941176470588236)" d="M344 328h8M344 329h8M344 330h8M344 331h8M344 332h8M344 333h8M344 334h8M344 335h8" />
    <path stroke="rgba(0,0,0,0.42745098039215684)" d="M352 328h8M352 329h8M352 330h8M352 331h8M352 332h8M352 333h8M352 334h8M352 335h8" />
    <path stroke="rgba(9,9,9,0.10588235294117647)" d="M48 336h8M48 337h8M48 338h8M48 339h8M48 340h8M48 341h8M48 342h8M48 343h8" />
    <path stroke="rgba(3,3,3,0.35294117647058826)" d="M72 336h8M72 337h8M72 338h8M72 339h8M72 340h8M72 341h8M72 342h8M72 343h8" />
    <path stroke="rgba(6,6,6,0.17254901960784313)" d="M80 336h8M80 337h8M80 338h8M80 339h8M80 340h8M80 341h8M80 342h8M80 343h8M200 344h8M200 345h8M200 346h8M200 347h8M200 348h8M200 349h8M200 350h8M200 351h8" />
    <path stroke="rgba(0,1,1,0.9254901960784314)" d="M96 336h8M96 337h8M96 338h8M96 339h8M96 340h8M96 341h8M96 342h8M96 343h8" />
    <path stroke="rgba(1,2,2,0.8)" d="M136 336h2M139 336h5M136 337h8M136 338h8M136 339h8M136 340h8M136 341h8M136 342h8M136 343h8" />
    <path stroke="rgba(1,3,2,0.8)" d="M138 336h1" />
    <path stroke="rgba(3,3,3,0.29411764705882354)" d="M240 336h8M240 337h8M240 338h8M240 339h8M240 340h8M240 341h8M240 342h8M240 343h8" />
    <path stroke="rgba(1,1,1,0.7450980392156863)" d="M248 336h8M248 337h8M248 338h8M248 339h8M248 340h8M248 341h8M248 342h8M248 343h8" />
    <path stroke="rgba(0,0,0,0.9568627450980393)" d="M288 336h8M288 337h6M295 337h1M288 338h8M288 339h8M288 340h8M288 341h8M288 342h8M288 343h8" />
    <path stroke="rgba(0,3,3,0.37254901960784315)" d="M328 336h8M328 337h8M328 338h8M328 339h8M328 340h8M328 341h8M328 342h8M328 343h8" />
    <path stroke="rgba(0,0,0,0.20392156862745098)" d="M336 336h8M336 337h8M336 338h8M336 339h8M336 340h8M336 341h8M336 342h8M336 343h8" />
    <path stroke="rgba(0,0,1,0.9568627450980393)" d="M294 337h1" />
    <path stroke="rgba(1,1,1,0.7843137254901961)" d="M104 344h8M104 345h8M104 346h8M104 347h8M104 348h8M104 349h8M104 350h8M104 351h8" />
    <path stroke="rgba(1,1,1,0.9490196078431372)" d="M152 344h8M152 345h8M152 346h8M152 347h8M152 348h8M152 349h8M152 350h8M152 351h8" />
    <path stroke="rgba(2,2,2,0.6666666666666666)" d="M160 344h8M160 345h8M160 346h8M160 347h8M160 348h8M160 349h8M160 350h8M160 351h8" />
    <path stroke="rgba(0,0,0,0.4392156862745098)" d="M168 344h8M168 345h8M168 346h8M168 347h8M168 348h8M168 349h8M168 350h8M168 351h8" />
    <path stroke="rgba(0,2,2,0.42745098039215684)" d="M216 344h8M216 345h8M216 346h8M216 347h8M216 348h8M216 349h8M216 350h8M216 351h8" />
    <path stroke="rgba(2,2,2,0.6470588235294118)" d="M224 344h8M224 345h8M224 346h8M224 347h8M224 348h8M224 349h8M224 350h8M224 351h8" />
    <path stroke="rgba(5,5,5,0.18823529411764706)" d="M288 344h8M288 345h8M288 346h8M288 347h8M288 348h8M288 349h8M288 350h8M288 351h8" />
    <path stroke="rgba(2,2,2,0.45098039215686275)" d="M112 352h8M112 353h8M112 354h8M112 355h8M112 356h8M112 357h8M112 358h8M112 359h8" />
    <path stroke="rgba(2,2,2,0.5019607843137255)" d="M128 360h8M128 361h8M128 362h8M128 363h8M128 364h8M128 365h8M128 366h8M128 367h8M208 376h8M208 377h8" />
    <path stroke="rgba(0,1,1,0.9098039215686274)" d="M136 360h8M136 361h8M136 362h8M136 363h8M136 364h8M136 365h8M136 366h8M136 367h8" />
    <path stroke="rgba(1,1,1,0.9333333333333333)" d="M248 360h8M248 361h8M248 362h8M248 363h8M248 364h8M248 365h8M248 366h8M248 367h8" />
    <path stroke="rgba(2,2,2,0.5529411764705883)" d="M256 360h8M256 361h8M256 362h8M256 363h8M256 364h8M256 365h8M256 366h8M256 367h8" />
    <path stroke="rgba(1,1,1,0.8196078431372549)" d="M160 368h8M160 369h8M160 370h8M160 371h8M160 372h8M160 373h8M160 374h8M160 375h8" />
    <path stroke="rgba(1,1,1,0.9882352941176471)" d="M168 368h8M168 369h8M168 370h8M168 371h8M168 372h8M168 373h8M168 374h8M168 375h8" />
    <path stroke="rgba(1,1,1,0.996078431372549)" d="M216 368h8M216 369h8M216 370h8M216 371h8M216 372h8M216 373h8M216 374h8M216 375h8" />
    <path stroke="rgba(3,3,3,0.30980392156862746)" d="M240 368h8M240 369h8M240 370h8M240 371h8M240 372h8M240 373h8M240 374h8M240 375h8" />
    <path stroke="rgba(15,15,30,0.06666666666666667)" d="M168 376h8M168 377h8" />
    <path stroke="rgba(2,4,4,0.5019607843137255)" d="M176 376h8M176 377h8" />
    <path stroke="rgba(6,7,7,0.9450980392156862)" d="M184 376h8M184 377h8" />
    <path stroke="rgba(6,7,7,0.9686274509803922)" d="M200 376h8M200 377h8" />
    <path stroke="rgba(26,26,26,0.0784313725490196)" d="M216 376h8M216 377h8" />
</svg>