<svg xmlns="http://www.w3.org/2000/svg" viewBox="0 -0.5 21 40" shape-rendering="crispEdges">
<metadata>Made with Pixels to Svg https://codepen.io/shshaw/pen/XbxvNj</metadata>
<path stroke="rgba(57,198,57,0.03529411764705882)" d="M8 0h1M10 13h1M4 26h1" />
<path stroke="rgba(49,206,49,0.32941176470588235)" d="M9 0h1M14 7h1M3 10h1M13 25h1" />
<path stroke="rgba(51,204,51,0.5529411764705883)" d="M10 0h1" />
<path stroke="rgba(50,205,50,0.6)" d="M11 0h1M4 6h1M6 10h1M8 37h1" />
<path stroke="rgba(49,206,49,0.5686274509803921)" d="M12 0h1" />
<path stroke="rgba(50,204,50,0.30196078431372547)" d="M13 0h1" />
<path stroke="rgba(42,213,43,0.023529411764705882)" d="M14 0h1" />
<path stroke="rgba(46,209,46,0.12941176470588237)" d="M7 1h1M1 7h1M7 8h1" />
<path stroke="rgba(50,205,50,0.7254901960784313)" d="M8 1h1M13 14h1" />
<path stroke="rgba(51,205,50,0.9764705882352941)" d="M9 1h1" />
<path stroke="rgba(50,205,50,0.9725490196078431)" d="M10 1h1M5 16h1M14 21h1M17 26h1M17 27h1M10 38h1M14 38h1" />
<path stroke="rgba(50,205,51,0.9686274509803922)" d="M11 1h1M17 28h1" />
<path stroke="rgba(51,205,50,0.9686274509803922)" d="M12 1h1" />
<path stroke="rgba(50,205,50,0.9686274509803922)" d="M13 1h1M15 6h1M15 11h1M17 16h1M18 19h1M14 22h1M5 24h1M8 27h1M14 27h1M6 28h1M14 28h1M12 30h1M17 33h1M7 34h1" />
<path stroke="rgba(49,206,48,0.6470588235294118)" d="M14 1h1M8 21h1" />
<path stroke="rgba(57,198,57,0.07058823529411765)" d="M15 1h1M6 2h1M3 12h1" />
<path stroke="rgba(50,205,50,0.803921568627451)" d="M7 2h1M7 19h1M7 20h1" />
<path stroke="rgba(50,205,50,0.9764705882352941)" d="M8 2h1M6 14h1M5 19h1M14 19h1M14 20h1M5 22h1M5 23h1M6 30h1" />
<path stroke="rgba(50,205,50,0.5843137254901961)" d="M9 2h1" />
<path stroke="rgba(51,204,51,0.19607843137254902)" d="M10 2h1" />
<path stroke="rgba(53,203,53,0.13333333333333333)" d="M11 2h1" />
<path stroke="rgba(48,206,49,0.16470588235294117)" d="M12 2h1" />
<path stroke="rgba(49,206,49,0.5254901960784314)" d="M13 2h1M12 31h1" />
<path stroke="rgba(50,205,50,0.9647058823529412)" d="M14 2h1M15 3h1M15 4h1M15 9h1M19 14h1M14 23h1M14 24h1M8 26h1M14 26h1M17 29h1M17 35h1M12 38h1" />
<path stroke="rgba(50,205,50,0.6549019607843137)" d="M15 2h1" />
<path stroke="rgba(42,213,42,0.023529411764705882)" d="M16 2h1M9 3h1M2 15h1M16 20h1M4 27h1M18 36h1" />
<path stroke="rgba(0,255,0,0.00392156862745098)" d="M5 3h1M4 4h1M17 4h1M9 7h1M13 8h1M14 13h1M11 16h1M10 27h1M19 28h1M14 31h1M12 32h1M5 33h1M17 38h1" />
<path stroke="rgba(48,206,49,0.4666666666666667)" d="M6 3h1" />
<path stroke="rgba(50,205,50,0.9882352941176471)" d="M7 3h1M1 10h1M7 10h1M15 10h1" />
<path stroke="rgba(50,205,51,0.5803921568627451)" d="M8 3h1" />
<path stroke="rgba(64,191,64,0.01568627450980392)" d="M13 3h1M10 12h1M9 20h1M8 31h1" />
<path stroke="rgba(50,205,51,0.5019607843137255)" d="M14 3h1M8 5h1" />
<path stroke="rgba(50,205,50,0.2823529411764706)" d="M16 3h1" />
<path stroke="rgba(59,196,58,0.050980392156862744)" d="M5 4h1" />
<path stroke="rgba(50,205,50,0.8)" d="M6 4h1M8 6h1M7 21h1" />
<path stroke="rgba(50,205,50,0.8980392156862745)" d="M7 4h1M12 15h1M16 37h1" />
<path stroke="rgba(46,209,46,0.10980392156862745)" d="M8 4h1M19 11h1" />
<path stroke="rgba(51,204,50,0.13725490196078433)" d="M14 4h1" />
<path stroke="rgba(49,207,49,0.5490196078431373)" d="M16 4h1" />
<path stroke="rgba(49,206,49,0.12156862745098039)" d="M3 5h1" />
<path stroke="rgba(49,206,49,0.48627450980392156)" d="M4 5h1" />
<path stroke="rgba(49,206,48,0.7686274509803922)" d="M5 5h1" />
<path stroke="rgba(51,205,50,0.9921568627450981)" d="M6 5h1" />
<path stroke="rgba(49,206,49,0.9098039215686274)" d="M7 5h1M17 8h1M14 10h1" />
<path stroke="rgba(64,191,64,0.03137254901960784)" d="M9 5h1M7 15h1M5 32h1M15 39h1" />
<path stroke="rgba(46,209,46,0.08627450980392157)" d="M14 5h1M12 10h1M10 36h1" />
<path stroke="rgba(50,205,50,0.9568627450980393)" d="M15 5h1M6 7h1M5 25h1M17 30h1M17 32h1" />
<path stroke="rgba(49,206,49,0.6078431372549019)" d="M16 5h1" />
<path stroke="rgba(85,170,85,0.011764705882352941)" d="M17 5h1M9 18h1M9 21h1M19 21h1M4 28h1M19 29h1M19 33h1M9 34h1M15 35h1M14 36h1" />
<path stroke="rgba(52,203,52,0.19215686274509805)" d="M2 6h1M18 35h1" />
<path stroke="rgba(51,205,50,0.7764705882352941)" d="M3 6h1" />
<path stroke="rgba(50,205,50,0.6627450980392157)" d="M5 6h1" />
<path stroke="rgba(50,205,50,0.984313725490196)" d="M6 6h1M15 7h1M8 11h1M8 12h1M18 13h1M5 20h1M5 21h1M9 37h1" />
<path stroke="rgba(50,205,50,0.7725490196078432)" d="M7 6h1M7 14h1" />
<path stroke="rgba(55,200,55,0.09019607843137255)" d="M9 6h1M16 32h1" />
<path stroke="rgba(52,203,52,0.15294117647058825)" d="M14 6h1" />
<path stroke="rgba(50,204,50,0.5803921568627451)" d="M16 6h1" />
<path stroke="rgba(0,255,0,0.00784313725490196)" d="M17 6h1M3 11h1M16 14h1M7 17h1" />
<path stroke="rgba(49,206,49,0.4666666666666667)" d="M2 7h1M4 13h2M13 21h1" />
<path stroke="rgba(50,204,51,0.13725490196078433)" d="M3 7h1" />
<path stroke="rgba(51,204,51,0.0392156862745098)" d="M4 7h1" />
<path stroke="rgba(49,206,49,0.5490196078431373)" d="M5 7h1M6 22h1" />
<path stroke="rgba(48,206,48,0.12549019607843137)" d="M7 7h1M1 8h1" />
<path stroke="rgba(36,219,37,0.027450980392156862)" d="M8 7h1M20 12h1" />
<path stroke="rgba(50,205,50,0.7843137254901961)" d="M16 7h1M14 15h1M8 24h1" />
<path stroke="rgba(51,204,51,0.35294117647058826)" d="M17 7h1" />
<path stroke="rgba(46,209,46,0.043137254901960784)" d="M18 7h1M0 9h1M17 18h1M16 31h1" />
<path stroke="rgba(50,205,51,0.3411764705882353)" d="M2 8h1" />
<path stroke="rgba(50,205,50,0.6392156862745098)" d="M3 8h1M1 9h1M14 9h1" />
<path stroke="rgba(49,206,49,0.7686274509803922)" d="M4 8h1" />
<path stroke="rgba(50,205,50,0.9215686274509803)" d="M5 8h1" />
<path stroke="rgba(50,205,50,0.9058823529411765)" d="M6 8h1" />
<path stroke="rgba(51,204,50,0.5137254901960784)" d="M14 8h1" />
<path stroke="rgba(50,205,50,0.9921568627450981)" d="M15 8h1M6 9h1M2 13h1M13 15h1M15 16h2" />
<path stroke="rgba(50,204,50,0.8392156862745098)" d="M16 8h1" />
<path stroke="rgba(51,205,50,0.7254901960784313)" d="M18 8h1" />
<path stroke="rgba(51,204,51,0.13725490196078433)" d="M19 8h1M20 13h1M12 37h1" />
<path stroke="rgba(50,205,51,0.9764705882352941)" d="M2 9h1M17 25h1" />
<path stroke="rgba(50,205,50,0.9803921568627451)" d="M3 9h1M14 11h1M17 11h1M5 17h1M14 17h1M5 18h1M17 22h1M17 23h1M6 29h1M9 29h1M17 34h1" />
<path stroke="rgba(50,205,50,0.9529411764705882)" d="M4 9h1M19 13h1M15 37h1" />
<path stroke="rgba(50,205,50,0.9607843137254902)" d="M5 9h1M11 30h1" />
<path stroke="rgba(50,205,50,0.8627450980392157)" d="M7 9h1M13 12h1" />
<path stroke="rgba(51,204,51,0.2549019607843137)" d="M8 9h1M15 19h1M15 25h1" />
<path stroke="rgba(64,190,64,0.01568627450980392)" d="M13 9h1" />
<path stroke="rgba(50,204,50,0.1411764705882353)" d="M16 9h1M16 21h1" />
<path stroke="rgba(53,202,53,0.09411764705882353)" d="M17 9h1M9 10h1" />
<path stroke="rgba(51,204,51,0.49411764705882355)" d="M18 9h1" />
<path stroke="rgba(50,205,50,0.6980392156862745)" d="M19 9h1" />
<path stroke="rgba(54,201,54,0.07450980392156863)" d="M20 9h1M19 20h1" />
<path stroke="rgba(50,205,50,0.403921568627451)" d="M0 10h1M16 17h1" />
<path stroke="rgba(50,205,50,0.9137254901960784)" d="M2 10h1M17 15h1M8 25h1" />
<path stroke="rgba(55,201,55,0.054901960784313725)" d="M4 10h1" />
<path stroke="rgba(48,207,48,0.12549019607843137)" d="M5 10h1" />
<path stroke="rgba(50,205,50,0.8549019607843137)" d="M8 10h1M1 13h1" />
<path stroke="rgba(50,205,50,0.4588235294117647)" d="M13 10h1M6 15h1" />
<path stroke="rgba(50,205,50,0.6352941176470588)" d="M16 10h1" />
<path stroke="rgba(50,205,51,0.3215686274509804)" d="M17 10h1M17 13h1" />
<path stroke="rgba(59,196,59,0.050980392156862744)" d="M18 10h1M15 29h1M8 32h1" />
<path stroke="rgba(50,204,50,0.3176470588235294)" d="M19 10h1M7 36h1" />
<path stroke="rgba(50,205,51,0.4235294117647059)" d="M20 10h1" />
<path stroke="rgba(50,205,50,0.596078431372549)" d="M0 11h1" />
<path stroke="#32cd32" d="M1 11h1M12 12h1M12 14h1M18 15h1M14 16h1" />
<path stroke="rgba(50,205,50,0.5803921568627451)" d="M2 11h1M9 38h1" />
<path stroke="rgba(58,196,59,0.050980392156862744)" d="M6 11h1M9 31h1" />
<path stroke="rgba(51,204,51,0.8705882352941177)" d="M7 11h1" />
<path stroke="rgba(50,205,50,0.3411764705882353)" d="M9 11h1M18 23h1" />
<path stroke="rgba(50,205,51,0.1411764705882353)" d="M11 11h1" />
<path stroke="rgba(50,205,50,0.8235294117647058)" d="M12 11h1" />
<path stroke="rgba(50,204,50,0.9921568627450981)" d="M13 11h1" />
<path stroke="rgba(50,204,50,0.984313725490196)" d="M16 11h1M4 14h1" />
<path stroke="rgba(50,205,50,0.7215686274509804)" d="M18 11h1M7 22h1" />
<path stroke="rgba(51,204,50,0.3137254901960784)" d="M20 11h1" />
<path stroke="rgba(51,204,51,0.5137254901960784)" d="M0 12h1" />
<path stroke="rgba(50,205,50,0.996078431372549)" d="M1 12h1M18 12h1M7 13h1M12 13h1M5 14h1" />
<path stroke="rgba(50,205,51,0.7725490196078432)" d="M2 12h1" />
<path stroke="rgba(47,208,47,0.10588235294117647)" d="M6 12h1" />
<path stroke="rgba(50,205,50,0.9019607843137255)" d="M7 12h1" />
<path stroke="rgba(48,206,49,0.32941176470588235)" d="M9 12h1" />
<path stroke="rgba(51,204,51,0.6509803921568628)" d="M11 12h1" />
<path stroke="rgba(49,206,49,0.3058823529411765)" d="M14 12h1" />
<path stroke="rgba(51,205,50,0.1411764705882353)" d="M15 12h1" />
<path stroke="rgba(49,207,49,0.32941176470588235)" d="M16 12h1M16 22h1" />
<path stroke="rgba(50,205,50,0.8588235294117647)" d="M17 12h1M13 29h1" />
<path stroke="rgba(50,205,50,0.6431372549019608)" d="M19 12h1" />
<path stroke="rgba(48,207,48,0.1450980392156863)" d="M0 13h1M4 24h1" />
<path stroke="rgba(50,205,50,0.7764705882352941)" d="M3 13h1" />
<path stroke="rgba(50,205,50,0.796078431372549)" d="M6 13h1" />
<path stroke="rgba(50,205,51,0.8470588235294118)" d="M8 13h1" />
<path stroke="rgba(51,204,51,0.0784313725490196)" d="M9 13h1" />
<path stroke="rgba(51,204,50,0.8705882352941177)" d="M11 13h1" />
<path stroke="rgba(51,205,51,0.49411764705882355)" d="M13 13h1" />
<path stroke="rgba(52,202,52,0.15294117647058825)" d="M1 14h1" />
<path stroke="rgba(49,206,49,0.7294117647058823)" d="M2 14h1M18 30h1M18 32h1" />
<path stroke="rgba(51,205,50,0.9607843137254902)" d="M3 14h1" />
<path stroke="rgba(50,205,50,0.2)" d="M8 14h1" />
<path stroke="rgba(51,204,51,0.0196078431372549)" d="M10 14h1M9 19h1M9 23h1M19 30h1M7 37h1M9 39h1" />
<path stroke="rgba(50,205,51,0.6862745098039216)" d="M11 14h1" />
<path stroke="rgba(51,204,50,0.058823529411764705)" d="M14 14h1" />
<path stroke="rgba(50,205,50,0.3568627450980392)" d="M17 14h1M18 26h1" />
<path stroke="rgba(51,205,50,0.984313725490196)" d="M18 14h1" />
<path stroke="rgba(47,208,46,0.16862745098039217)" d="M20 14h1" />
<path stroke="rgba(46,208,47,0.14901960784313725)" d="M3 15h1" />
<path stroke="rgba(50,205,50,0.5372549019607843)" d="M4 15h1" />
<path stroke="rgba(50,205,51,0.9803921568627451)" d="M5 15h1M14 18h1M17 24h1M11 38h1" />
<path stroke="rgba(48,207,48,0.18823529411764706)" d="M11 15h1M13 31h1" />
<path stroke="rgba(50,205,50,0.47843137254901963)" d="M15 15h1M7 18h1M16 24h1" />
<path stroke="rgba(50,205,50,0.5568627450980392)" d="M16 15h1M7 25h1" />
<path stroke="rgba(50,204,50,0.7372549019607844)" d="M19 15h1" />
<path stroke="rgba(36,219,36,0.027450980392156862)" d="M20 15h1M9 24h1M19 31h1M6 35h1" />
<path stroke="rgba(50,205,50,0.33725490196078434)" d="M4 16h1M15 18h1M4 19h1M4 20h1M16 26h1M15 27h1" />
<path stroke="rgba(51,205,50,0.3803921568627451)" d="M6 16h1" />
<path stroke="rgba(49,206,49,0.20392156862745098)" d="M12 16h1M16 38h1" />
<path stroke="rgba(50,205,50,0.792156862745098)" d="M13 16h1" />
<path stroke="rgba(51,205,50,0.7137254901960784)" d="M18 16h1" />
<path stroke="rgba(51,205,51,0.13725490196078433)" d="M19 16h1" />
<path stroke="rgba(50,204,50,0.4)" d="M4 17h1" />
<path stroke="rgba(50,205,50,0.3803921568627451)" d="M6 17h1" />
<path stroke="rgba(0,255,1,0.00784313725490196)" d="M8 17h1M11 32h1" />
<path stroke="rgba(49,206,49,0.38823529411764707)" d="M13 17h1M13 22h1" />
<path stroke="rgba(51,204,51,0.611764705882353)" d="M15 17h1M8 34h1" />
<path stroke="rgba(48,207,48,0.22745098039215686)" d="M17 17h1" />
<path stroke="rgba(65,191,64,0.03137254901960784)" d="M18 17h1" />
<path stroke="rgba(49,206,49,0.40784313725490196)" d="M4 18h1" />
<path stroke="rgba(51,205,50,0.396078431372549)" d="M6 18h1" />
<path stroke="rgba(51,204,50,0.45098039215686275)" d="M8 18h1" />
<path stroke="rgba(51,204,51,0.4549019607843137)" d="M13 18h1M18 22h1M7 26h1M18 34h1M13 39h1" />
<path stroke="rgba(50,205,50,0.5019607843137255)" d="M18 18h1M6 21h1M12 39h1" />
<path stroke="rgba(50,205,50,0.1607843137254902)" d="M19 18h1M16 28h1" />
<path stroke="rgba(50,205,50,0.4196078431372549)" d="M6 19h1" />
<path stroke="rgba(50,205,50,0.7333333333333333)" d="M8 19h1M8 23h1" />
<path stroke="rgba(51,205,51,0.47058823529411764)" d="M13 19h1" />
<path stroke="rgba(49,206,49,0.3843137254901961)" d="M17 19h1" />
<path stroke="rgba(50,205,50,0.3215686274509804)" d="M19 19h1M16 34h1" />
<path stroke="rgba(50,205,50,0.4980392156862745)" d="M6 20h1" />
<path stroke="rgba(50,205,50,0.6745098039215687)" d="M8 20h1" />
<path stroke="rgba(51,204,51,0.47058823529411764)" d="M13 20h1" />
<path stroke="rgba(52,203,52,0.25098039215686274)" d="M15 20h1M15 21h1M15 23h1M15 24h1" />
<path stroke="rgba(50,205,50,0.7450980392156863)" d="M17 20h1" />
<path stroke="rgba(50,205,50,0.8941176470588236)" d="M18 20h1" />
<path stroke="rgba(51,204,51,0.3333333333333333)" d="M4 21h1" />
<path stroke="rgba(50,205,51,0.9568627450980393)" d="M17 21h1" />
<path stroke="rgba(51,204,51,0.6313725490196078)" d="M18 21h1" />
<path stroke="rgba(49,206,49,0.26666666666666666)" d="M4 22h1M8 33h1" />
<path stroke="rgba(50,205,51,0.6588235294117647)" d="M8 22h1" />
<path stroke="rgba(65,191,64,0.01568627450980392)" d="M9 22h1" />
<path stroke="rgba(53,203,52,0.25098039215686274)" d="M15 22h1" />
<path stroke="rgba(51,204,51,0.23529411764705882)" d="M4 23h1" />
<path stroke="rgba(50,204,51,0.592156862745098)" d="M6 23h1" />
<path stroke="rgba(50,205,50,0.7176470588235294)" d="M7 23h1M17 36h1" />
<path stroke="rgba(50,205,50,0.3764705882352941)" d="M13 23h1M13 24h1" />
<path stroke="rgba(51,204,51,0.43529411764705883)" d="M16 23h1" />
<path stroke="rgba(51,206,50,0.6666666666666666)" d="M6 24h1" />
<path stroke="rgba(49,207,49,0.6470588235294118)" d="M7 24h1" />
<path stroke="rgba(49,206,49,0.28627450980392155)" d="M18 24h1M13 26h1" />
<path stroke="rgba(45,210,45,0.06666666666666667)" d="M4 25h1M8 30h1" />
<path stroke="rgba(49,206,49,0.7490196078431373)" d="M6 25h1M9 36h1" />
<path stroke="rgba(42,213,42,0.047058823529411764)" d="M9 25h1M10 28h1M8 38h1" />
<path stroke="rgba(50,205,51,0.9607843137254902)" d="M14 25h1" />
<path stroke="rgba(50,205,50,0.4)" d="M16 25h1" />
<path stroke="rgba(49,206,49,0.3254901960784314)" d="M18 25h1" />
<path stroke="rgba(50,205,50,0.8823529411764706)" d="M5 26h1" />
<path stroke="rgba(51,205,50,0.8431372549019608)" d="M6 26h1" />
<path stroke="rgba(49,206,49,0.1843137254901961)" d="M9 26h1" />
<path stroke="rgba(51,205,50,0.33725490196078434)" d="M15 26h1" />
<path stroke="rgba(50,205,51,0.7529411764705882)" d="M5 27h1" />
<path stroke="rgba(50,205,50,0.9411764705882353)" d="M6 27h1M17 31h1" />
<path stroke="rgba(51,204,51,0.3137254901960784)" d="M7 27h1" />
<path stroke="rgba(50,205,50,0.44313725490196076)" d="M9 27h1M7 30h1" />
<path stroke="rgba(49,207,49,0.3058823529411765)" d="M13 27h1" />
<path stroke="rgba(49,206,49,0.2627450980392157)" d="M16 27h1M10 39h1" />
<path stroke="rgba(50,204,51,0.43137254901960786)" d="M18 27h1" />
<path stroke="rgba(50,205,50,0.6235294117647059)" d="M5 28h1" />
<path stroke="rgba(50,205,50,0.2196078431372549)" d="M7 28h1M6 34h1" />
<path stroke="rgba(50,205,50,0.8666666666666667)" d="M8 28h1" />
<path stroke="rgba(51,204,51,0.8117647058823529)" d="M9 28h1" />
<path stroke="rgba(50,205,50,0.4392156862745098)" d="M13 28h1" />
<path stroke="rgba(50,205,50,0.23921568627450981)" d="M15 28h1" />
<path stroke="rgba(50,205,50,0.5215686274509804)" d="M18 28h1" />
<path stroke="rgba(50,205,50,0.4627450980392157)" d="M5 29h1" />
<path stroke="rgba(51,205,51,0.3333333333333333)" d="M7 29h1" />
<path stroke="rgba(49,206,49,0.5058823529411764)" d="M8 29h1" />
<path stroke="rgba(50,204,50,0.5568627450980392)" d="M10 29h1" />
<path stroke="rgba(49,206,48,0.10196078431372549)" d="M11 29h1" />
<path stroke="rgba(51,204,51,0.21568627450980393)" d="M12 29h1M13 37h1" />
<path stroke="rgba(51,204,51,0.8313725490196079)" d="M14 29h1" />
<path stroke="rgba(53,202,53,0.11372549019607843)" d="M16 29h1" />
<path stroke="rgba(49,206,49,0.6470588235294118)" d="M18 29h1" />
<path stroke="rgba(50,205,50,0.2980392156862745)" d="M5 30h1" />
<path stroke="rgba(50,205,50,0.7137254901960784)" d="M9 30h1" />
<path stroke="rgba(50,204,50,0.9803921568627451)" d="M10 30h1" />
<path stroke="rgba(49,206,49,0.9294117647058824)" d="M13 30h1" />
<path stroke="rgba(52,203,52,0.2901960784313726)" d="M14 30h1" />
<path stroke="rgba(1,255,0,0.00392156862745098)" d="M15 30h1" />
<path stroke="rgba(46,208,46,0.08627450980392157)" d="M16 30h1" />
<path stroke="rgba(47,208,47,0.14901960784313725)" d="M5 31h1" />
<path stroke="rgba(51,205,50,0.9647058823529412)" d="M6 31h1" />
<path stroke="rgba(50,204,50,0.6588235294117647)" d="M7 31h1" />
<path stroke="rgba(51,204,51,0.39215686274509803)" d="M10 31h1" />
<path stroke="rgba(49,206,49,0.5882352941176471)" d="M11 31h1" />
<path stroke="rgba(51,205,50,0.7843137254901961)" d="M18 31h1" />
<path stroke="rgba(50,205,50,0.8196078431372549)" d="M6 32h1" />
<path stroke="rgba(50,205,50,0.8745098039215686)" d="M7 32h1" />
<path stroke="rgba(51,205,51,0.0196078431372549)" d="M19 32h1" />
<path stroke="rgba(48,206,49,0.5294117647058824)" d="M6 33h1" />
<path stroke="rgba(50,204,50,0.9764705882352941)" d="M7 33h1" />
<path stroke="rgba(51,205,51,0.1568627450980392)" d="M16 33h1" />
<path stroke="rgba(51,205,50,0.6431372549019608)" d="M18 33h1" />
<path stroke="rgba(50,205,50,0.7568627450980392)" d="M7 35h1" />
<path stroke="rgba(50,205,51,0.9411764705882353)" d="M8 35h1" />
<path stroke="rgba(50,205,50,0.1803921568627451)" d="M9 35h1M17 37h1" />
<path stroke="rgba(50,205,50,0.6196078431372549)" d="M16 35h1" />
<path stroke="rgba(50,205,51,0.9725490196078431)" d="M8 36h1" />
<path stroke="rgba(50,205,50,0.3176470588235294)" d="M15 36h1" />
<path stroke="rgba(50,205,50,0.9333333333333333)" d="M16 36h1" />
<path stroke="rgba(50,204,50,0.7764705882352941)" d="M10 37h1" />
<path stroke="rgba(50,205,50,0.30196078431372547)" d="M11 37h1" />
<path stroke="rgba(50,205,50,0.5607843137254902)" d="M14 37h1" />
<path stroke="rgba(50,204,50,0.9686274509803922)" d="M13 38h1" />
<path stroke="rgba(48,206,49,0.7490196078431373)" d="M15 38h1" />
<path stroke="rgba(51,204,51,0.4745098039215686)" d="M11 39h1" />
<path stroke="rgba(50,205,50,0.25882352941176473)" d="M14 39h1" />
</svg>
